<svg width="320" height="145" viewBox="0 0 320 145" fill="none" xmlns="http://www.w3.org/2000/svg">
<path d="M12 71.932C12 71.3051 12.5312 70.7969 13.1864 70.7969H26.2373C26.8925 70.7969 27.4237 71.3051 27.4237 71.932V93.4996H12V71.932Z" fill="#4E80EE"/>
<path d="M29.7966 62.8519C29.7966 62.225 30.3278 61.7168 30.983 61.7168H45.2203C45.8756 61.7168 46.4068 62.225 46.4068 62.8519V93.5006H29.7966V62.8519Z" fill="#2A4DD0"/>
<path d="M48.7797 52.6351C48.7797 52.0082 49.3108 51.5 49.9661 51.5H66.5763C67.2315 51.5 67.7627 52.0082 67.7627 52.6351V93.5H48.7797V52.6351Z" fill="#3662E3"/>
<path d="M70.1356 77.6058C70.1356 76.9789 70.6668 76.4707 71.322 76.4707H80.8136C81.4688 76.4707 82 76.9789 82 77.6058V93.4977H70.1356V77.6058Z" fill="#263FA9"/>
<path d="M295.995 86.5397C293.305 86.5397 290.989 85.9948 289.048 84.9051C287.118 83.8041 285.631 82.2489 284.587 80.2398C283.542 78.2193 283.02 75.8298 283.02 73.0715C283.02 70.3812 283.542 68.0202 284.587 65.9883C285.631 63.9565 287.101 62.373 288.997 61.2378C290.904 60.1027 293.14 59.5352 295.706 59.5352C297.431 59.5352 299.038 59.8133 300.525 60.3695C302.023 60.9143 303.329 61.7373 304.441 62.8384C305.565 63.9394 306.439 65.3243 307.063 66.9929C307.688 68.6502 308 70.5912 308 72.8161V74.8082H285.915V70.3131H301.172C301.172 69.2688 300.945 68.3437 300.491 67.5378C300.037 66.7318 299.407 66.1018 298.601 65.6478C297.806 65.1824 296.881 64.9497 295.825 64.9497C294.724 64.9497 293.748 65.2051 292.896 65.7159C292.056 66.2153 291.398 66.8907 290.921 67.7421C290.444 68.5821 290.2 69.5186 290.189 70.5515V74.8252C290.189 76.1193 290.427 77.2374 290.904 78.1795C291.392 79.1217 292.079 79.8482 292.964 80.359C293.85 80.8698 294.9 81.1252 296.115 81.1252C296.921 81.1252 297.658 81.0117 298.328 80.7846C298.998 80.5576 299.571 80.2171 300.048 79.763C300.525 79.309 300.888 78.7528 301.138 78.0944L307.847 78.5371C307.506 80.149 306.808 81.5565 305.752 82.7598C304.708 83.9516 303.357 84.8824 301.7 85.5521C300.054 86.2105 298.152 86.5397 295.995 86.5397Z" fill="#1A1A1A"/>
<path d="M279.631 59.8733V65.3219H263.88V59.8733H279.631ZM267.456 53.6074H274.71V77.9898C274.71 78.6596 274.812 79.1817 275.016 79.5563C275.221 79.9195 275.505 80.175 275.868 80.3225C276.242 80.4701 276.674 80.5439 277.162 80.5439C277.502 80.5439 277.843 80.5155 278.184 80.4587C278.524 80.3906 278.785 80.3395 278.967 80.3055L280.108 85.703C279.744 85.8165 279.234 85.947 278.575 86.0946C277.917 86.2535 277.117 86.35 276.174 86.3841C274.426 86.4522 272.894 86.2195 271.577 85.686C270.271 85.1525 269.255 84.3238 268.529 83.2001C267.802 82.0763 267.445 80.6574 267.456 78.9433V53.6074Z" fill="#1A1A1A"/>
<path d="M245.362 86.5227C243.693 86.5227 242.206 86.2332 240.9 85.6543C239.595 85.064 238.562 84.1957 237.801 83.0492C237.052 81.8914 236.677 80.4498 236.677 78.7244C236.677 77.2714 236.944 76.0512 237.478 75.0636C238.011 74.0761 238.738 73.2815 239.657 72.6799C240.577 72.0782 241.621 71.6242 242.79 71.3177C243.971 71.0112 245.208 70.7956 246.502 70.6707C248.024 70.5118 249.25 70.3642 250.18 70.228C251.111 70.0804 251.787 69.8648 252.207 69.581C252.627 69.2972 252.837 68.8772 252.837 68.321V68.2188C252.837 67.1405 252.496 66.3062 251.815 65.7159C251.145 65.1256 250.192 64.8305 248.954 64.8305C247.649 64.8305 246.61 65.12 245.838 65.6989C245.066 66.2664 244.556 66.9816 244.306 67.8442L237.597 67.2994C237.937 65.7102 238.607 64.3367 239.606 63.1789C240.605 62.0097 241.894 61.113 243.472 60.4887C245.061 59.853 246.9 59.5352 248.989 59.5352C250.442 59.5352 251.832 59.7054 253.16 60.046C254.5 60.3865 255.686 60.9143 256.719 61.6295C257.764 62.3446 258.587 63.264 259.188 64.3878C259.79 65.5002 260.091 66.834 260.091 68.3891V86.0289H253.211V82.4022H253.007C252.587 83.2195 252.025 83.9403 251.321 84.5646C250.618 85.1776 249.772 85.66 248.784 86.0119C247.797 86.3524 246.656 86.5227 245.362 86.5227ZM247.439 81.5168C248.506 81.5168 249.448 81.3068 250.266 80.8868C251.083 80.4554 251.724 79.8765 252.19 79.1501C252.655 78.4236 252.888 77.6006 252.888 76.6812V73.9058C252.661 74.0534 252.349 74.1896 251.951 74.3144C251.565 74.428 251.128 74.5358 250.64 74.6379C250.152 74.7288 249.664 74.8139 249.176 74.8934C248.688 74.9615 248.245 75.0239 247.848 75.0806C246.996 75.2055 246.253 75.4042 245.617 75.6766C244.981 75.949 244.487 76.3179 244.136 76.7833C243.784 77.2374 243.608 77.8049 243.608 78.486C243.608 79.4736 243.965 80.2284 244.68 80.7506C245.407 81.2614 246.327 81.5168 247.439 81.5168Z" fill="#1A1A1A"/>
<path d="M221.577 86.5397C218.898 86.5397 216.594 85.9721 214.664 84.837C212.745 83.6905 211.27 82.1014 210.237 80.0695C209.215 78.0376 208.704 75.6993 208.704 73.0545C208.704 70.3756 209.221 68.0259 210.254 66.0053C211.298 63.9735 212.779 62.39 214.698 61.2549C216.616 60.1084 218.898 59.5352 221.543 59.5352C223.825 59.5352 225.823 59.9495 227.537 60.7781C229.251 61.6068 230.607 62.7703 231.606 64.2686C232.605 65.767 233.156 67.5264 233.258 69.5469H226.413C226.22 68.2415 225.709 67.1916 224.88 66.397C224.063 65.591 222.99 65.1881 221.662 65.1881C220.538 65.1881 219.556 65.4945 218.716 66.1075C217.888 66.7091 217.241 67.5888 216.775 68.7467C216.31 69.9045 216.077 71.3064 216.077 72.9523C216.077 74.6209 216.304 76.0398 216.758 77.209C217.224 78.3782 217.876 79.2692 218.716 79.8822C219.556 80.4952 220.538 80.8017 221.662 80.8017C222.491 80.8017 223.234 80.6314 223.893 80.2909C224.563 79.9503 225.113 79.4565 225.545 78.8095C225.987 78.1512 226.277 77.3622 226.413 76.4428H233.258C233.145 78.4406 232.6 80.2 231.623 81.7211C230.659 83.2308 229.325 84.4114 227.622 85.2627C225.919 86.114 223.904 86.5397 221.577 86.5397Z" fill="#1A1A1A"/>
<path d="M196.695 86.0265V59.8724H203.949V86.0265H196.695ZM200.339 56.5009C199.26 56.5009 198.335 56.1433 197.563 55.4282C196.803 54.7017 196.422 53.8333 196.422 52.823C196.422 51.8241 196.803 50.967 197.563 50.2519C198.335 49.5254 199.26 49.1621 200.339 49.1621C201.417 49.1621 202.337 49.5254 203.097 50.2519C203.869 50.967 204.255 51.8241 204.255 52.823C204.255 53.8333 203.869 54.7017 203.097 55.4282C202.337 56.1433 201.417 56.5009 200.339 56.5009Z" fill="#1A1A1A"/>
<path d="M190.884 51.1523V86.0245H183.63V51.1523H190.884Z" fill="#1A1A1A"/>
<path d="M153.285 95.8376V59.8757H160.437V64.2688H160.761C161.078 63.565 161.538 62.8498 162.14 62.1233C162.753 61.3855 163.548 60.7725 164.524 60.2844C165.512 59.7849 166.738 59.5352 168.202 59.5352C170.109 59.5352 171.869 60.0346 173.481 61.0336C175.093 62.0212 176.381 63.5139 177.346 65.5118C178.311 67.4983 178.794 69.99 178.794 72.9868C178.794 75.9042 178.323 78.3675 177.38 80.3767C176.449 82.3746 175.178 83.89 173.566 84.923C171.965 85.9447 170.172 86.4555 168.185 86.4555C166.777 86.4555 165.58 86.2228 164.592 85.7574C163.616 85.292 162.815 84.7073 162.191 84.0035C161.567 83.2884 161.09 82.5676 160.761 81.8411H160.539V95.8376H153.285ZM160.386 72.9528C160.386 74.5079 160.602 75.8644 161.033 77.0223C161.464 78.1802 162.089 79.0826 162.906 79.7297C163.724 80.3654 164.717 80.6832 165.886 80.6832C167.067 80.6832 168.066 80.3597 168.883 79.7126C169.701 79.0542 170.319 78.1461 170.739 76.9883C171.171 75.819 171.386 74.4739 171.386 72.9528C171.386 71.443 171.176 70.1149 170.756 68.9683C170.336 67.8218 169.718 66.9251 168.9 66.278C168.083 65.631 167.078 65.3074 165.886 65.3074C164.706 65.3074 163.707 65.6196 162.889 66.244C162.083 66.8683 161.464 67.7537 161.033 68.9002C160.602 70.0467 160.386 71.3976 160.386 72.9528Z" fill="#1A1A1A"/>
<path d="M140.228 74.8946V59.877H147.482V86.0302H140.518V81.2797H140.245C139.655 82.8121 138.673 84.0437 137.299 84.9745C135.937 85.9053 134.274 86.3707 132.31 86.3707C130.562 86.3707 129.024 85.9734 127.696 85.1788C126.367 84.3842 125.329 83.2548 124.58 81.7905C123.842 80.3262 123.467 78.5724 123.456 76.5292V59.877H130.71V75.2351C130.721 76.7789 131.135 77.9992 131.953 78.8959C132.77 79.7927 133.865 80.241 135.239 80.241C136.113 80.241 136.93 80.0424 137.691 79.6451C138.451 79.2365 139.064 78.6348 139.53 77.8403C140.007 77.0457 140.239 76.0638 140.228 74.8946Z" fill="#1A1A1A"/>
<path d="M102.609 86.4502C100.622 86.4502 98.8227 85.9394 97.2107 84.9177C95.61 83.8847 94.3386 82.3693 93.3963 80.3714C92.4654 78.3622 92 75.8989 92 72.9815C92 69.9847 92.4825 67.493 93.4474 65.5065C94.4124 63.5086 95.6952 62.0158 97.2958 61.0282C98.9078 60.0293 100.673 59.5298 102.592 59.5298C104.056 59.5298 105.276 59.7796 106.253 60.279C107.24 60.7672 108.035 61.3801 108.637 62.118C109.25 62.8445 109.715 63.5597 110.033 64.2635H110.254V51.1523H117.491V86.0245H110.34V81.8357H110.033C109.692 82.5622 109.21 83.2831 108.586 83.9982C107.973 84.702 107.172 85.2866 106.185 85.752C105.208 86.2175 104.016 86.4502 102.609 86.4502ZM104.908 80.6779C106.077 80.6779 107.064 80.36 107.87 79.7243C108.688 79.0773 109.312 78.1748 109.744 77.017C110.186 75.8591 110.408 74.5026 110.408 72.9474C110.408 71.3923 110.192 70.0414 109.761 68.8949C109.329 67.7484 108.705 66.863 107.887 66.2386C107.07 65.6143 106.077 65.3021 104.908 65.3021C103.716 65.3021 102.711 65.6256 101.893 66.2727C101.076 66.9197 100.457 67.8165 100.037 68.963C99.6174 70.1095 99.4073 71.4377 99.4073 72.9474C99.4073 74.4685 99.6174 75.8137 100.037 76.9829C100.469 78.1408 101.087 79.0489 101.893 79.7073C102.711 80.3544 103.716 80.6779 104.908 80.6779Z" fill="#1A1A1A"/>
</svg>
