<svg width="752" height="518" viewBox="0 0 752 518" fill="none" xmlns="http://www.w3.org/2000/svg">
<g filter="url(#filter0_dd_0_3347)">
<g clip-path="url(#clip0_0_3347)">
<path d="M20 24C20 15.1634 27.1634 8 36 8L716 8C724.837 8 732 15.1634 732 24V470C732 478.837 724.837 486 716 486L36 486C27.1634 486 20 478.837 20 470L20 24Z" fill="white"/>
<g clip-path="url(#clip1_0_3347)">
<path d="M44.612 53L49.292 39.986H51.659L56.33 53H54.134L52.973 49.733H48.005L46.817 53H44.612ZM48.509 47.789H52.433L50.48 42.119L48.509 47.789ZM58.1795 53V43.694H60.2765V45.71C60.4265 45.248 60.6395 44.855 60.9155 44.531C61.1975 44.201 61.5275 43.949 61.9055 43.775C62.2835 43.601 62.6945 43.514 63.1385 43.514C63.2465 43.514 63.3515 43.52 63.4535 43.532C63.5555 43.544 63.6305 43.565 63.6785 43.595V45.692C63.6125 45.662 63.5255 45.641 63.4175 45.629C63.3155 45.617 63.2255 45.611 63.1475 45.611C62.6975 45.575 62.2985 45.593 61.9505 45.665C61.6085 45.737 61.3175 45.86 61.0775 46.034C60.8435 46.202 60.6665 46.418 60.5465 46.682C60.4265 46.94 60.3665 47.243 60.3665 47.591V53H58.1795ZM66.9649 48.851C66.9589 49.379 67.0429 49.847 67.2169 50.255C67.3909 50.663 67.6489 50.984 67.9909 51.218C68.3329 51.446 68.7559 51.56 69.2599 51.56C69.7759 51.56 70.2229 51.446 70.6009 51.218C70.9849 50.984 71.2399 50.63 71.3659 50.156H73.3729C73.2649 50.804 73.0069 51.353 72.5989 51.803C72.1909 52.253 71.6959 52.595 71.1139 52.829C70.5379 53.063 69.9379 53.18 69.3139 53.18C68.4139 53.18 67.6219 52.991 66.9379 52.613C66.2599 52.229 65.7289 51.683 65.3449 50.975C64.9669 50.267 64.7779 49.424 64.7779 48.446C64.7779 47.492 64.9519 46.646 65.2999 45.908C65.6479 45.164 66.1489 44.579 66.8029 44.153C67.4629 43.727 68.2549 43.514 69.1789 43.514C70.0969 43.514 70.8679 43.709 71.4919 44.099C72.1219 44.489 72.5959 45.035 72.9139 45.737C73.2379 46.433 73.3999 47.249 73.3999 48.185V48.851H66.9649ZM66.9649 47.492H71.3299C71.3299 47.042 71.2519 46.637 71.0959 46.277C70.9399 45.911 70.6999 45.623 70.3759 45.413C70.0579 45.197 69.6559 45.089 69.1699 45.089C68.6899 45.089 68.2849 45.206 67.9549 45.44C67.6249 45.674 67.3759 45.977 67.2079 46.349C67.0399 46.715 66.9589 47.096 66.9649 47.492ZM77.9903 53.18C77.3963 53.18 76.8623 53.072 76.3883 52.856C75.9203 52.634 75.5513 52.319 75.2813 51.911C75.0173 51.497 74.8853 50.996 74.8853 50.408C74.8853 49.382 75.2543 48.608 75.9923 48.086C76.7363 47.564 77.9213 47.291 79.5473 47.267L80.9333 47.231V46.601C80.9333 46.109 80.7863 45.725 80.4923 45.449C80.2043 45.167 79.7543 45.029 79.1423 45.035C78.6923 45.041 78.2783 45.149 77.9003 45.359C77.5283 45.563 77.2823 45.908 77.1623 46.394H75.2993C75.3353 45.758 75.5183 45.227 75.8483 44.801C76.1843 44.369 76.6433 44.048 77.2253 43.838C77.8073 43.622 78.4793 43.514 79.2413 43.514C80.1293 43.514 80.8523 43.631 81.4103 43.865C81.9683 44.099 82.3793 44.438 82.6433 44.882C82.9073 45.32 83.0393 45.851 83.0393 46.475V53H81.1943L81.0233 51.326C80.6873 52.028 80.2613 52.514 79.7453 52.784C79.2353 53.048 78.6503 53.18 77.9903 53.18ZM78.7013 51.695C78.9713 51.695 79.2383 51.647 79.5023 51.551C79.7663 51.449 80.0063 51.314 80.2223 51.146C80.4383 50.972 80.6093 50.78 80.7353 50.57C80.8673 50.36 80.9333 50.141 80.9333 49.913V48.446L79.7903 48.464C79.2263 48.47 78.7343 48.53 78.3143 48.644C77.8943 48.758 77.5643 48.941 77.3243 49.193C77.0903 49.439 76.9733 49.769 76.9733 50.183C76.9733 50.657 77.1383 51.029 77.4683 51.299C77.7983 51.563 78.2093 51.695 78.7013 51.695ZM91.833 43.694V53H89.727V43.694H91.833ZM91.86 39.995V42.065H89.691V39.995H91.86ZM94.5662 53V43.694H96.7082V45.026C96.8522 44.786 97.0472 44.555 97.2932 44.333C97.5452 44.111 97.8542 43.931 98.2202 43.793C98.5862 43.655 99.0152 43.586 99.5072 43.586C100.083 43.586 100.617 43.7 101.109 43.928C101.607 44.156 102.006 44.513 102.306 44.999C102.612 45.485 102.765 46.112 102.765 46.88V53H100.569V47.141C100.569 46.529 100.401 46.076 100.065 45.782C99.7292 45.482 99.3062 45.332 98.7962 45.332C98.4482 45.332 98.1182 45.392 97.8062 45.512C97.4942 45.626 97.2392 45.803 97.0412 46.043C96.8492 46.277 96.7532 46.571 96.7532 46.925V53H94.5662ZM108.491 53.18C107.843 53.18 107.228 53.078 106.646 52.874C106.07 52.664 105.584 52.337 105.188 51.893C104.798 51.449 104.552 50.876 104.45 50.174H106.376C106.46 50.516 106.607 50.795 106.817 51.011C107.033 51.227 107.288 51.386 107.582 51.488C107.876 51.584 108.176 51.632 108.482 51.632C109.04 51.632 109.49 51.536 109.832 51.344C110.18 51.152 110.354 50.855 110.354 50.453C110.354 50.159 110.258 49.925 110.066 49.751C109.874 49.577 109.568 49.445 109.148 49.355L107.375 48.95C106.589 48.776 105.956 48.488 105.476 48.086C105.002 47.684 104.762 47.117 104.756 46.385C104.75 45.833 104.888 45.341 105.17 44.909C105.452 44.477 105.872 44.138 106.43 43.892C106.988 43.64 107.678 43.514 108.5 43.514C109.586 43.514 110.456 43.757 111.11 44.243C111.764 44.723 112.1 45.41 112.118 46.304H110.255C110.189 45.902 110 45.59 109.688 45.368C109.376 45.14 108.971 45.026 108.473 45.026C107.957 45.026 107.534 45.125 107.204 45.323C106.874 45.521 106.709 45.824 106.709 46.232C106.709 46.514 106.835 46.736 107.087 46.898C107.339 47.06 107.717 47.198 108.221 47.312L109.895 47.717C110.375 47.837 110.768 47.999 111.074 48.203C111.38 48.407 111.62 48.632 111.794 48.878C111.968 49.118 112.088 49.367 112.154 49.625C112.226 49.877 112.262 50.111 112.262 50.327C112.262 50.927 112.106 51.44 111.794 51.866C111.488 52.286 111.053 52.61 110.489 52.838C109.925 53.066 109.259 53.18 108.491 53.18ZM119.405 45.242H117.326L117.335 50.579C117.335 50.855 117.365 51.059 117.425 51.191C117.491 51.317 117.593 51.401 117.731 51.443C117.875 51.479 118.067 51.497 118.307 51.497H119.45V52.883C119.33 52.931 119.147 52.973 118.901 53.009C118.661 53.051 118.337 53.072 117.929 53.072C117.191 53.072 116.618 52.976 116.21 52.784C115.808 52.586 115.529 52.307 115.373 51.947C115.217 51.587 115.139 51.158 115.139 50.66V45.242H113.627V43.694H115.202L115.751 40.931H117.326V43.685H119.405V45.242ZM124.15 53.18C123.556 53.18 123.022 53.072 122.548 52.856C122.08 52.634 121.711 52.319 121.441 51.911C121.177 51.497 121.045 50.996 121.045 50.408C121.045 49.382 121.414 48.608 122.152 48.086C122.896 47.564 124.081 47.291 125.707 47.267L127.093 47.231V46.601C127.093 46.109 126.946 45.725 126.652 45.449C126.364 45.167 125.914 45.029 125.302 45.035C124.852 45.041 124.438 45.149 124.06 45.359C123.688 45.563 123.442 45.908 123.322 46.394H121.459C121.495 45.758 121.678 45.227 122.008 44.801C122.344 44.369 122.803 44.048 123.385 43.838C123.967 43.622 124.639 43.514 125.401 43.514C126.289 43.514 127.012 43.631 127.57 43.865C128.128 44.099 128.539 44.438 128.803 44.882C129.067 45.32 129.199 45.851 129.199 46.475V53H127.354L127.183 51.326C126.847 52.028 126.421 52.514 125.905 52.784C125.395 53.048 124.81 53.18 124.15 53.18ZM124.861 51.695C125.131 51.695 125.398 51.647 125.662 51.551C125.926 51.449 126.166 51.314 126.382 51.146C126.598 50.972 126.769 50.78 126.895 50.57C127.027 50.36 127.093 50.141 127.093 49.913V48.446L125.95 48.464C125.386 48.47 124.894 48.53 124.474 48.644C124.054 48.758 123.724 48.941 123.484 49.193C123.25 49.439 123.133 49.769 123.133 50.183C123.133 50.657 123.298 51.029 123.628 51.299C123.958 51.563 124.369 51.695 124.861 51.695ZM134.444 53.135C133.844 53.135 133.364 53.06 133.004 52.91C132.644 52.76 132.374 52.559 132.194 52.307C132.014 52.055 131.897 51.773 131.843 51.461C131.789 51.143 131.762 50.819 131.762 50.489V39.626H133.904V50.237C133.904 50.639 133.985 50.951 134.147 51.173C134.315 51.395 134.585 51.524 134.957 51.56L135.425 51.578V52.955C135.263 53.003 135.098 53.045 134.93 53.081C134.762 53.117 134.6 53.135 134.444 53.135ZM139.805 53.135C139.205 53.135 138.725 53.06 138.365 52.91C138.005 52.76 137.735 52.559 137.555 52.307C137.375 52.055 137.258 51.773 137.204 51.461C137.15 51.143 137.123 50.819 137.123 50.489V39.626H139.265V50.237C139.265 50.639 139.346 50.951 139.508 51.173C139.676 51.395 139.946 51.524 140.318 51.56L140.786 51.578V52.955C140.624 53.003 140.459 53.045 140.291 53.081C140.123 53.117 139.961 53.135 139.805 53.135ZM144.344 48.851C144.338 49.379 144.422 49.847 144.596 50.255C144.77 50.663 145.028 50.984 145.37 51.218C145.712 51.446 146.135 51.56 146.639 51.56C147.155 51.56 147.602 51.446 147.98 51.218C148.364 50.984 148.619 50.63 148.745 50.156H150.752C150.644 50.804 150.386 51.353 149.978 51.803C149.57 52.253 149.075 52.595 148.493 52.829C147.917 53.063 147.317 53.18 146.693 53.18C145.793 53.18 145.001 52.991 144.317 52.613C143.639 52.229 143.108 51.683 142.724 50.975C142.346 50.267 142.157 49.424 142.157 48.446C142.157 47.492 142.331 46.646 142.679 45.908C143.027 45.164 143.528 44.579 144.182 44.153C144.842 43.727 145.634 43.514 146.558 43.514C147.476 43.514 148.247 43.709 148.871 44.099C149.501 44.489 149.975 45.035 150.293 45.737C150.617 46.433 150.779 47.249 150.779 48.185V48.851H144.344ZM144.344 47.492H148.709C148.709 47.042 148.631 46.637 148.475 46.277C148.319 45.911 148.079 45.623 147.755 45.413C147.437 45.197 147.035 45.089 146.549 45.089C146.069 45.089 145.664 45.206 145.334 45.44C145.004 45.674 144.755 45.977 144.587 46.349C144.419 46.715 144.338 47.096 144.344 47.492ZM156.231 53.18C155.001 53.18 154.035 52.757 153.333 51.911C152.631 51.065 152.28 49.862 152.28 48.302C152.28 47.33 152.421 46.487 152.703 45.773C152.991 45.053 153.411 44.498 153.963 44.108C154.521 43.712 155.211 43.514 156.033 43.514C156.417 43.514 156.765 43.562 157.077 43.658C157.395 43.748 157.677 43.868 157.923 44.018C158.169 44.168 158.376 44.333 158.544 44.513C158.718 44.693 158.853 44.873 158.949 45.053V39.626H161.145V53H159.525L159.282 51.092C159.21 51.314 159.102 51.548 158.958 51.794C158.82 52.034 158.631 52.259 158.391 52.469C158.157 52.679 157.863 52.85 157.509 52.982C157.155 53.114 156.729 53.18 156.231 53.18ZM156.681 51.569C157.467 51.569 158.04 51.314 158.4 50.804C158.766 50.288 158.949 49.436 158.949 48.248C158.943 47.57 158.859 47 158.697 46.538C158.541 46.076 158.298 45.728 157.968 45.494C157.644 45.26 157.224 45.143 156.708 45.143C156.048 45.143 155.505 45.386 155.079 45.872C154.653 46.358 154.44 47.15 154.44 48.248C154.44 49.34 154.635 50.168 155.025 50.732C155.415 51.29 155.967 51.569 156.681 51.569Z" fill="#1C252E"/>
<path d="M47.864 69.353C47.388 70.2583 46.996 71.25 46.688 72.328C46.38 73.4013 46.226 74.491 46.226 75.597C46.226 76.647 46.3567 77.6713 46.618 78.67C46.8793 79.664 47.2573 80.6837 47.752 81.729H46.87C46.4827 81.0757 46.1467 80.4293 45.862 79.79C45.582 79.1507 45.3627 78.488 45.204 77.802C45.05 77.116 44.973 76.3763 44.973 75.583C44.973 74.4257 45.1597 73.315 45.533 72.251C45.9063 71.1823 46.387 70.2163 46.975 69.353H47.864ZM55.1403 74.407V75.408L49.0993 75.422V74.414L55.1403 74.407ZM52.6343 77.928H51.6333L51.6193 71.887H52.6273L52.6343 77.928ZM61.3729 69.878H62.6889V76.276H64.3689V77.417H62.6889V80H61.4219V77.417H56.6549V76.234L61.3729 69.878ZM57.8939 76.276H61.3939V71.579L57.8939 76.276ZM65.6136 72.825C65.6136 72.1717 65.7723 71.6163 66.0896 71.159C66.4069 70.697 66.8293 70.3447 67.3566 70.102C67.8886 69.8593 68.4743 69.738 69.1136 69.738C69.8136 69.738 70.4319 69.8407 70.9686 70.046C71.5053 70.2467 71.9253 70.5407 72.2286 70.928C72.5319 71.3153 72.6836 71.789 72.6836 72.349C72.6836 72.8483 72.5249 73.301 72.2076 73.707C71.8903 74.1083 71.4049 74.4233 70.7516 74.652C71.1949 74.7733 71.5823 74.9507 71.9136 75.184C72.2449 75.4173 72.5016 75.7043 72.6836 76.045C72.8656 76.381 72.9566 76.7683 72.9566 77.207C72.9566 77.669 72.8586 78.0843 72.6626 78.453C72.4713 78.817 72.2006 79.1273 71.8506 79.384C71.5006 79.636 71.0876 79.8297 70.6116 79.965C70.1356 80.0957 69.6176 80.1587 69.0576 80.154C68.3623 80.1493 67.7486 80.021 67.2166 79.769C66.6893 79.517 66.2739 79.1647 65.9706 78.712C65.6673 78.2547 65.5039 77.7133 65.4806 77.088H66.7756C66.8736 77.718 67.1303 78.201 67.5456 78.537C67.9609 78.873 68.4813 79.041 69.1066 79.041C69.6013 79.041 70.0329 78.964 70.4016 78.81C70.7703 78.6513 71.0549 78.4343 71.2556 78.159C71.4563 77.8837 71.5566 77.5617 71.5566 77.193C71.5566 76.787 71.4446 76.444 71.2206 76.164C70.9966 75.884 70.6909 75.6717 70.3036 75.527C69.9163 75.3777 69.4846 75.3007 69.0086 75.296L68.0986 75.275V74.176L68.9666 74.155C69.4099 74.1457 69.8066 74.0617 70.1566 73.903C70.5066 73.7397 70.7819 73.5273 70.9826 73.266C71.1879 73 71.2906 72.7083 71.2906 72.391C71.2906 72.111 71.2043 71.852 71.0316 71.614C70.8589 71.3713 70.6093 71.1777 70.2826 71.033C69.9606 70.8883 69.5686 70.816 69.1066 70.816C68.7426 70.816 68.3949 70.8883 68.0636 71.033C67.7323 71.173 67.4593 71.39 67.2446 71.684C67.0299 71.978 66.9156 72.3583 66.9016 72.825H65.6136ZM76.777 69.724C77.2296 69.724 77.6356 69.843 77.995 70.081C78.3543 70.319 78.6366 70.655 78.842 71.089C79.0473 71.523 79.15 72.034 79.15 72.622C79.15 73.21 79.0473 73.7187 78.842 74.148C78.6413 74.5773 78.3613 74.911 78.002 75.149C77.6426 75.3823 77.2343 75.499 76.777 75.499C76.315 75.499 75.902 75.3823 75.538 75.149C75.1786 74.911 74.894 74.5773 74.684 74.148C74.474 73.7187 74.369 73.21 74.369 72.622C74.369 72.034 74.474 71.523 74.684 71.089C74.894 70.655 75.1786 70.319 75.538 70.081C75.902 69.843 76.315 69.724 76.777 69.724ZM76.763 74.778C77.211 74.778 77.554 74.5797 77.792 74.183C78.0346 73.7863 78.156 73.266 78.156 72.622C78.156 71.9687 78.0346 71.4437 77.792 71.047C77.5493 70.6457 77.2063 70.445 76.763 70.445C76.4643 70.445 76.21 70.5383 76 70.725C75.7946 70.907 75.636 71.1613 75.524 71.488C75.4166 71.8147 75.363 72.1927 75.363 72.622C75.363 73.2613 75.4843 73.7817 75.727 74.183C75.9696 74.5797 76.315 74.778 76.763 74.778ZM83.112 74.351C83.5693 74.351 83.9776 74.4723 84.337 74.715C84.6963 74.953 84.9786 75.289 85.184 75.723C85.3893 76.157 85.492 76.6657 85.492 77.249C85.492 77.837 85.3893 78.348 85.184 78.782C84.9833 79.216 84.7033 79.552 84.344 79.79C83.9846 80.0233 83.574 80.14 83.112 80.14C82.65 80.14 82.237 80.0233 81.873 79.79C81.509 79.552 81.2243 79.216 81.019 78.782C80.8136 78.348 80.711 77.837 80.711 77.249C80.711 76.6657 80.8136 76.157 81.019 75.723C81.229 75.289 81.516 74.953 81.88 74.715C82.244 74.4723 82.6546 74.351 83.112 74.351ZM83.098 79.405C83.3873 79.405 83.637 79.314 83.847 79.132C84.057 78.9453 84.218 78.691 84.33 78.369C84.442 78.047 84.498 77.6783 84.498 77.263C84.498 76.8383 84.4396 76.4627 84.323 76.136C84.211 75.8047 84.05 75.5457 83.84 75.359C83.63 75.1723 83.3826 75.079 83.098 75.079C82.8133 75.079 82.566 75.1747 82.356 75.366C82.146 75.5527 81.985 75.8117 81.873 76.143C81.761 76.4697 81.705 76.843 81.705 77.263C81.705 77.6783 81.761 78.047 81.873 78.369C81.985 78.691 82.1436 78.9453 82.349 79.132C82.559 79.314 82.8086 79.405 83.098 79.405ZM83.693 69.766L76.889 80.056L76.014 80.049L82.846 69.766H83.693ZM86.5601 69.353H87.4491C88.0371 70.2163 88.5178 71.1823 88.8911 72.251C89.2644 73.315 89.4511 74.4257 89.4511 75.583C89.4511 76.3763 89.3718 77.116 89.2131 77.802C89.0591 78.488 88.8398 79.1507 88.5551 79.79C88.2751 80.4293 87.9414 81.0757 87.5541 81.729H86.6721C87.1668 80.6837 87.5448 79.664 87.8061 78.67C88.0674 77.6713 88.1981 76.647 88.1981 75.597C88.1981 74.491 88.0441 73.4013 87.7361 72.328C87.4281 71.25 87.0361 70.2583 86.5601 69.353ZM98.596 73.707H96.965V78.208C96.965 78.4647 96.9906 78.6537 97.042 78.775C97.098 78.8917 97.189 78.9663 97.315 78.999C97.4456 79.0317 97.623 79.048 97.847 79.048H98.638V79.916C98.5493 79.9487 98.414 79.9767 98.232 80C98.0546 80.0233 97.833 80.035 97.567 80.035C97.0676 80.035 96.6803 79.9673 96.405 79.832C96.1296 79.6967 95.936 79.496 95.824 79.23C95.7166 78.964 95.663 78.6373 95.663 78.25V73.707H94.487V72.762H95.698L96.013 70.655H96.965V72.755H98.596V73.707ZM100.456 80V69.598H101.716V73.826C101.837 73.6253 102 73.4387 102.206 73.266C102.411 73.0887 102.661 72.9463 102.955 72.839C103.249 72.727 103.589 72.671 103.977 72.671C104.448 72.671 104.875 72.7597 105.258 72.937C105.64 73.1097 105.944 73.357 106.168 73.679C106.392 74.001 106.504 74.3837 106.504 74.827V80H105.209V75.086C105.209 74.652 105.059 74.3183 104.761 74.085C104.467 73.847 104.082 73.728 103.606 73.728C103.284 73.728 102.98 73.7817 102.696 73.889C102.411 73.9917 102.18 74.1503 102.003 74.365C101.83 74.575 101.744 74.8433 101.744 75.17V80H100.456ZM110.497 80.14C110.03 80.14 109.617 80.0583 109.258 79.895C108.898 79.727 108.616 79.4867 108.411 79.174C108.21 78.8613 108.11 78.4833 108.11 78.04C108.11 77.2373 108.39 76.64 108.95 76.248C109.51 75.856 110.408 75.646 111.645 75.618L112.94 75.583V75.016C112.94 74.5727 112.807 74.2227 112.541 73.966C112.275 73.7047 111.862 73.574 111.302 73.574C110.886 73.5787 110.52 73.6767 110.203 73.868C109.89 74.0593 109.687 74.372 109.594 74.806H108.453C108.481 74.3347 108.614 73.938 108.852 73.616C109.09 73.2893 109.421 73.042 109.846 72.874C110.275 72.706 110.781 72.622 111.365 72.622C111.995 72.622 112.517 72.7107 112.933 72.888C113.353 73.0653 113.665 73.3267 113.871 73.672C114.081 74.0173 114.186 74.442 114.186 74.946V80H113.08L112.989 78.642C112.709 79.2067 112.352 79.5987 111.918 79.818C111.488 80.0327 111.015 80.14 110.497 80.14ZM110.889 79.209C111.131 79.209 111.372 79.1647 111.61 79.076C111.852 78.9873 112.074 78.8683 112.275 78.719C112.475 78.565 112.634 78.3947 112.751 78.208C112.872 78.0167 112.935 77.8207 112.94 77.62V76.381L111.862 76.402C111.311 76.4113 110.849 76.4673 110.476 76.57C110.107 76.6727 109.829 76.8337 109.643 77.053C109.461 77.2723 109.37 77.5593 109.37 77.914C109.37 78.32 109.51 78.6373 109.79 78.866C110.074 79.0947 110.441 79.209 110.889 79.209ZM116.397 80V72.762H117.65V73.812C117.767 73.6113 117.928 73.4223 118.133 73.245C118.343 73.0677 118.595 72.9253 118.889 72.818C119.188 72.7107 119.531 72.657 119.918 72.657C120.376 72.657 120.796 72.748 121.178 72.93C121.566 73.112 121.874 73.3967 122.102 73.784C122.336 74.1667 122.452 74.6613 122.452 75.268V80H121.157V75.394C121.157 74.8293 121.008 74.4117 120.709 74.141C120.415 73.8657 120.033 73.728 119.561 73.728C119.235 73.728 118.929 73.7817 118.644 73.889C118.36 73.9917 118.129 74.1503 117.951 74.365C117.774 74.575 117.685 74.841 117.685 75.163V80H116.397ZM129.531 80.091C129.139 80.091 128.821 80.0373 128.579 79.93C128.341 79.8227 128.156 79.678 128.026 79.496C127.9 79.314 127.813 79.1063 127.767 78.873C127.725 78.635 127.704 78.39 127.704 78.138V69.598H128.978V78.012C128.978 78.376 129.048 78.649 129.188 78.831C129.332 79.013 129.533 79.1133 129.79 79.132L130.182 79.139V79.979C130.074 80.0117 129.962 80.0373 129.846 80.056C129.729 80.0793 129.624 80.091 129.531 80.091ZM133.807 80.14C133.341 80.14 132.928 80.0583 132.568 79.895C132.209 79.727 131.927 79.4867 131.721 79.174C131.521 78.8613 131.42 78.4833 131.42 78.04C131.42 77.2373 131.7 76.64 132.26 76.248C132.82 75.856 133.719 75.646 134.955 75.618L136.25 75.583V75.016C136.25 74.5727 136.117 74.2227 135.851 73.966C135.585 73.7047 135.172 73.574 134.612 73.574C134.197 73.5787 133.831 73.6767 133.513 73.868C133.201 74.0593 132.998 74.372 132.904 74.806H131.763C131.791 74.3347 131.924 73.938 132.162 73.616C132.4 73.2893 132.732 73.042 133.156 72.874C133.586 72.706 134.092 72.622 134.675 72.622C135.305 72.622 135.828 72.7107 136.243 72.888C136.663 73.0653 136.976 73.3267 137.181 73.672C137.391 74.0173 137.496 74.442 137.496 74.946V80H136.39L136.299 78.642C136.019 79.2067 135.662 79.5987 135.228 79.818C134.799 80.0327 134.325 80.14 133.807 80.14ZM134.199 79.209C134.442 79.209 134.682 79.1647 134.92 79.076C135.163 78.9873 135.385 78.8683 135.585 78.719C135.786 78.565 135.945 78.3947 136.061 78.208C136.183 78.0167 136.246 77.8207 136.25 77.62V76.381L135.172 76.402C134.622 76.4113 134.16 76.4673 133.786 76.57C133.418 76.6727 133.14 76.8337 132.953 77.053C132.771 77.2723 132.68 77.5593 132.68 77.914C132.68 78.32 132.82 78.6373 133.1 78.866C133.385 79.0947 133.751 79.209 134.199 79.209ZM142.167 80.14C141.663 80.14 141.194 80.063 140.76 79.909C140.331 79.7503 139.974 79.5053 139.689 79.174C139.405 78.838 139.225 78.411 139.15 77.893H140.326C140.392 78.1777 140.508 78.4157 140.676 78.607C140.849 78.7937 141.064 78.936 141.32 79.034C141.577 79.1273 141.857 79.174 142.16 79.174C142.646 79.174 143.038 79.083 143.336 78.901C143.635 78.719 143.784 78.439 143.784 78.061C143.784 77.795 143.705 77.5827 143.546 77.424C143.392 77.2607 143.152 77.1417 142.825 77.067L141.327 76.696C140.744 76.556 140.277 76.3367 139.927 76.038C139.577 75.7393 139.402 75.3217 139.402 74.785C139.398 74.3603 139.498 73.987 139.703 73.665C139.909 73.343 140.217 73.0887 140.627 72.902C141.038 72.7153 141.549 72.622 142.16 72.622C142.944 72.622 143.577 72.7993 144.057 73.154C144.543 73.504 144.795 74.0197 144.813 74.701H143.672C143.626 74.3557 143.469 74.0827 143.203 73.882C142.942 73.6767 142.59 73.574 142.146 73.574C141.684 73.574 141.309 73.6673 141.019 73.854C140.73 74.036 140.585 74.3207 140.585 74.708C140.585 74.9647 140.688 75.1677 140.893 75.317C141.099 75.4617 141.402 75.583 141.803 75.681L143.252 76.045C143.588 76.1337 143.864 76.2503 144.078 76.395C144.298 76.5397 144.47 76.7007 144.596 76.878C144.727 77.0553 144.818 77.242 144.869 77.438C144.925 77.6293 144.953 77.8137 144.953 77.991C144.953 78.4343 144.841 78.817 144.617 79.139C144.398 79.4563 144.081 79.7037 143.665 79.881C143.255 80.0537 142.755 80.14 142.167 80.14ZM150.276 73.707H148.645V78.208C148.645 78.4647 148.67 78.6537 148.722 78.775C148.778 78.8917 148.869 78.9663 148.995 78.999C149.125 79.0317 149.303 79.048 149.527 79.048H150.318V79.916C150.229 79.9487 150.094 79.9767 149.912 80C149.734 80.0233 149.513 80.035 149.247 80.035C148.747 80.035 148.36 79.9673 148.085 79.832C147.809 79.6967 147.616 79.496 147.504 79.23C147.396 78.964 147.343 78.6373 147.343 78.25V73.707H146.167V72.762H147.378L147.693 70.655H148.645V72.755H150.276V73.707ZM155.994 82.31C155.569 82.31 155.278 82.2797 155.119 82.219C154.96 82.1583 154.881 82.128 154.881 82.128V81.288L155.616 81.302C155.887 81.3113 156.111 81.2927 156.288 81.246C156.465 81.1993 156.608 81.1363 156.715 81.057C156.822 80.9777 156.904 80.889 156.96 80.791C157.021 80.693 157.07 80.5997 157.107 80.511L157.359 79.825L154.531 72.762H155.84L157.975 78.348L160.096 72.762H161.363L158.311 80.546C158.124 81.0033 157.914 81.3603 157.681 81.617C157.452 81.8737 157.196 82.0533 156.911 82.156C156.631 82.2587 156.325 82.31 155.994 82.31ZM163.409 76.682C163.409 77.1393 163.484 77.5547 163.633 77.928C163.787 78.2967 164.018 78.5907 164.326 78.81C164.639 79.0293 165.028 79.139 165.495 79.139C165.957 79.139 166.354 79.0317 166.685 78.817C167.021 78.6023 167.236 78.292 167.329 77.886H168.554C168.465 78.376 168.269 78.789 167.966 79.125C167.663 79.461 167.296 79.7153 166.867 79.888C166.438 80.056 165.99 80.14 165.523 80.14C164.846 80.14 164.251 79.993 163.738 79.699C163.225 79.405 162.823 78.9827 162.534 78.432C162.245 77.8813 162.1 77.221 162.1 76.451C162.1 75.6903 162.231 75.023 162.492 74.449C162.753 73.875 163.131 73.427 163.626 73.105C164.125 72.783 164.725 72.622 165.425 72.622C166.106 72.622 166.683 72.769 167.154 73.063C167.625 73.357 167.982 73.7723 168.225 74.309C168.472 74.841 168.596 75.4733 168.596 76.206V76.682H163.409ZM163.416 75.807H167.35C167.35 75.3917 167.28 75.0183 167.14 74.687C167 74.351 166.785 74.0873 166.496 73.896C166.211 73.7 165.852 73.602 165.418 73.602C164.965 73.602 164.59 73.7117 164.291 73.931C163.997 74.1457 163.775 74.4233 163.626 74.764C163.481 75.1 163.411 75.4477 163.416 75.807ZM172.294 80.14C171.827 80.14 171.414 80.0583 171.055 79.895C170.695 79.727 170.413 79.4867 170.208 79.174C170.007 78.8613 169.907 78.4833 169.907 78.04C169.907 77.2373 170.187 76.64 170.747 76.248C171.307 75.856 172.205 75.646 173.442 75.618L174.737 75.583V75.016C174.737 74.5727 174.604 74.2227 174.338 73.966C174.072 73.7047 173.659 73.574 173.099 73.574C172.683 73.5787 172.317 73.6767 172 73.868C171.687 74.0593 171.484 74.372 171.391 74.806H170.25C170.278 74.3347 170.411 73.938 170.649 73.616C170.887 73.2893 171.218 73.042 171.643 72.874C172.072 72.706 172.578 72.622 173.162 72.622C173.792 72.622 174.314 72.7107 174.73 72.888C175.15 73.0653 175.462 73.3267 175.668 73.672C175.878 74.0173 175.983 74.442 175.983 74.946V80H174.877L174.786 78.642C174.506 79.2067 174.149 79.5987 173.715 79.818C173.285 80.0327 172.812 80.14 172.294 80.14ZM172.686 79.209C172.928 79.209 173.169 79.1647 173.407 79.076C173.649 78.9873 173.871 78.8683 174.072 78.719C174.272 78.565 174.431 78.3947 174.548 78.208C174.669 78.0167 174.732 77.8207 174.737 77.62V76.381L173.659 76.402C173.108 76.4113 172.646 76.4673 172.273 76.57C171.904 76.6727 171.626 76.8337 171.44 77.053C171.258 77.2723 171.167 77.5593 171.167 77.914C171.167 78.32 171.307 78.6373 171.587 78.866C171.871 79.0947 172.238 79.209 172.686 79.209ZM178.194 80V72.762H179.426V74.155C179.547 73.8097 179.718 73.525 179.937 73.301C180.156 73.0723 180.406 72.902 180.686 72.79C180.971 72.678 181.265 72.622 181.568 72.622C181.675 72.622 181.78 72.629 181.883 72.643C181.986 72.657 182.065 72.6803 182.121 72.713V73.966C182.051 73.9333 181.96 73.9123 181.848 73.903C181.741 73.889 181.65 73.882 181.575 73.882C181.286 73.8633 181.015 73.882 180.763 73.938C180.511 73.9893 180.289 74.0803 180.098 74.211C179.907 74.3417 179.755 74.5143 179.643 74.729C179.536 74.939 179.482 75.1957 179.482 75.499V80H178.194Z" fill="#637381"/>
</g>
<path d="M640 32.5L708 32.5C712.142 32.5 715.5 35.8579 715.5 40V58C715.5 62.1421 712.142 65.5 708 65.5H640C635.858 65.5 632.5 62.1421 632.5 58V40C632.5 35.8579 635.858 32.5 640 32.5Z" stroke="#919EAB" stroke-opacity="0.24"/>
<path d="M644.826 54V53.09V52.621C644.826 52.103 644.922 51.6573 645.113 51.284C645.304 50.906 645.559 50.577 645.876 50.297C646.193 50.017 646.541 49.7697 646.919 49.555C647.302 49.3357 647.68 49.1303 648.053 48.939C648.431 48.743 648.779 48.5423 649.096 48.337C649.413 48.127 649.668 47.8937 649.859 47.637C650.055 47.3803 650.153 47.0747 650.153 46.72C650.153 46.2673 649.992 45.8987 649.67 45.614C649.353 45.3247 648.921 45.18 648.375 45.18C647.796 45.18 647.318 45.3457 646.94 45.677C646.567 46.0083 646.345 46.475 646.275 47.077H644.623C644.632 46.461 644.779 45.901 645.064 45.397C645.349 44.893 645.771 44.4917 646.331 44.193C646.891 43.8897 647.589 43.738 648.424 43.738C649.147 43.738 649.77 43.864 650.293 44.116C650.82 44.3633 651.226 44.711 651.511 45.159C651.8 45.6023 651.945 46.1203 651.945 46.713C651.945 47.231 651.849 47.6743 651.658 48.043C651.471 48.4117 651.222 48.7313 650.909 49.002C650.601 49.268 650.26 49.5037 649.887 49.709C649.518 49.9143 649.147 50.108 648.774 50.29C648.405 50.4673 648.065 50.654 647.752 50.85C647.444 51.0413 647.194 51.2607 647.003 51.508C646.816 51.7553 646.723 52.0517 646.723 52.397V52.544H651.966V54H644.826ZM657.058 43.738C658.215 43.738 659.13 44.1837 659.802 45.075C660.478 45.9617 660.817 47.2567 660.817 48.96C660.817 50.654 660.481 51.9443 659.809 52.831C659.141 53.713 658.222 54.154 657.051 54.154C655.879 54.154 654.958 53.713 654.286 52.831C653.618 51.949 653.285 50.6633 653.285 48.974C653.285 47.8353 653.439 46.8787 653.747 46.104C654.055 45.3247 654.491 44.7367 655.056 44.34C655.62 43.9387 656.288 43.738 657.058 43.738ZM657.058 52.733C657.716 52.733 658.206 52.4413 658.528 51.858C658.85 51.2747 659.011 50.311 659.011 48.967C659.011 47.595 658.847 46.6103 658.521 46.013C658.194 45.4157 657.704 45.117 657.051 45.117C656.397 45.117 655.903 45.418 655.567 46.02C655.235 46.622 655.07 47.6043 655.07 48.967C655.07 50.3063 655.235 51.27 655.567 51.858C655.903 52.4413 656.4 52.733 657.058 52.733ZM662.285 54V53.09V52.621C662.285 52.103 662.381 51.6573 662.572 51.284C662.763 50.906 663.018 50.577 663.335 50.297C663.652 50.017 664 49.7697 664.378 49.555C664.761 49.3357 665.139 49.1303 665.512 48.939C665.89 48.743 666.238 48.5423 666.555 48.337C666.872 48.127 667.127 47.8937 667.318 47.637C667.514 47.3803 667.612 47.0747 667.612 46.72C667.612 46.2673 667.451 45.8987 667.129 45.614C666.812 45.3247 666.38 45.18 665.834 45.18C665.255 45.18 664.777 45.3457 664.399 45.677C664.026 46.0083 663.804 46.475 663.734 47.077H662.082C662.091 46.461 662.238 45.901 662.523 45.397C662.808 44.893 663.23 44.4917 663.79 44.193C664.35 43.8897 665.048 43.738 665.883 43.738C666.606 43.738 667.229 43.864 667.752 44.116C668.279 44.3633 668.685 44.711 668.97 45.159C669.259 45.6023 669.404 46.1203 669.404 46.713C669.404 47.231 669.308 47.6743 669.117 48.043C668.93 48.4117 668.681 48.7313 668.368 49.002C668.06 49.268 667.719 49.5037 667.346 49.709C666.977 49.9143 666.606 50.108 666.233 50.29C665.864 50.4673 665.524 50.654 665.211 50.85C664.903 51.0413 664.653 51.2607 664.462 51.508C664.275 51.7553 664.182 52.0517 664.182 52.397V52.544H669.425V54H662.285ZM670.835 46.916C670.835 46.2253 671 45.6443 671.332 45.173C671.663 44.697 672.106 44.34 672.662 44.102C673.222 43.8593 673.842 43.738 674.524 43.738C675.256 43.738 675.905 43.8383 676.47 44.039C677.039 44.235 677.485 44.5313 677.807 44.928C678.133 45.3247 678.297 45.817 678.297 46.405C678.297 46.9043 678.145 47.35 677.842 47.742C677.538 48.134 677.06 48.442 676.407 48.666C676.813 48.778 677.177 48.946 677.499 49.17C677.821 49.3893 678.075 49.6647 678.262 49.996C678.453 50.3273 678.549 50.717 678.549 51.165C678.549 51.6457 678.444 52.0727 678.234 52.446C678.028 52.8193 677.739 53.1343 677.366 53.391C676.997 53.643 676.565 53.8343 676.071 53.965C675.576 54.091 675.044 54.154 674.475 54.154C673.714 54.1493 673.058 54.0187 672.508 53.762C671.957 53.5053 671.528 53.139 671.22 52.663C670.916 52.187 670.758 51.6223 670.744 50.969H672.403C672.501 51.571 672.739 52.019 673.117 52.313C673.499 52.6023 673.964 52.747 674.51 52.747C674.962 52.747 675.354 52.6793 675.686 52.544C676.017 52.404 676.271 52.2127 676.449 51.97C676.631 51.7273 676.722 51.445 676.722 51.123C676.722 50.7823 676.624 50.4907 676.428 50.248C676.236 50.0053 675.973 49.8187 675.637 49.688C675.301 49.5573 674.923 49.4873 674.503 49.478L673.565 49.45V48.064L674.433 48.029C674.834 48.015 675.186 47.938 675.49 47.798C675.798 47.658 676.038 47.4737 676.211 47.245C676.383 47.0163 676.47 46.7597 676.47 46.475C676.47 46.2137 676.388 45.978 676.225 45.768C676.066 45.558 675.84 45.3947 675.546 45.278C675.252 45.1567 674.904 45.096 674.503 45.096C674.162 45.096 673.842 45.1567 673.544 45.278C673.245 45.3993 672.998 45.5953 672.802 45.866C672.61 46.132 672.505 46.482 672.487 46.916H670.835Z" fill="#1C252E"/>
<path d="M700 51.3343C699.844 51.3346 699.693 51.2803 699.574 51.1809L695.574 47.8476C695.29 47.612 695.251 47.1911 695.487 46.9076C695.723 46.6241 696.143 46.5853 696.427 46.8209L700 49.8076L703.574 46.9276C703.711 46.8158 703.888 46.7634 704.064 46.7822C704.241 46.801 704.402 46.8893 704.514 47.0276C704.637 47.1662 704.697 47.3499 704.679 47.5346C704.662 47.7194 704.568 47.8883 704.42 48.0009L700.42 51.2209C700.297 51.3046 700.149 51.3445 700 51.3343Z" fill="#1C252E"/>
<path d="M44 121C44 117.686 46.6863 115 50 115C53.3137 115 56 117.686 56 121C56 124.314 53.3137 127 50 127C46.6863 127 44 124.314 44 121Z" fill="#007867"/>
<path d="M64.4875 126L67.8805 116.601H69.4145L72.801 126H71.397L70.513 123.536H66.8015L65.898 126H64.4875ZM67.133 122.275H70.1555L68.654 117.966L67.133 122.275ZM76.6482 126.13C76.1802 126.13 75.7404 126.056 75.3287 125.909C74.9214 125.762 74.579 125.53 74.3017 125.213C74.0287 124.897 73.8575 124.492 73.7882 123.998H75.0297C75.086 124.254 75.1922 124.466 75.3482 124.635C75.5085 124.8 75.6992 124.923 75.9202 125.005C76.1455 125.083 76.386 125.122 76.6417 125.122C77.0664 125.122 77.4087 125.047 77.6687 124.895C77.933 124.739 78.0652 124.501 78.0652 124.18C78.0652 123.95 77.9937 123.766 77.8507 123.627C77.712 123.489 77.491 123.387 77.1877 123.322L75.8487 123.003C75.294 122.873 74.8499 122.668 74.5162 122.386C74.1825 122.1 74.0135 121.701 74.0092 121.19C74.0092 120.796 74.1067 120.445 74.3017 120.137C74.501 119.829 74.7957 119.589 75.1857 119.415C75.5757 119.238 76.061 119.149 76.6417 119.149C77.4 119.149 78.0089 119.318 78.4682 119.656C78.9275 119.994 79.1659 120.484 79.1832 121.125H77.9807C77.9374 120.817 77.7965 120.577 77.5582 120.403C77.3242 120.226 77.0144 120.137 76.6287 120.137C76.23 120.137 75.9029 120.217 75.6472 120.377C75.3915 120.533 75.2637 120.774 75.2637 121.099C75.2637 121.32 75.3569 121.495 75.5432 121.625C75.7295 121.751 76.009 121.855 76.3817 121.938L77.6557 122.256C77.985 122.343 78.2559 122.457 78.4682 122.6C78.6805 122.739 78.8474 122.893 78.9687 123.062C79.09 123.231 79.1745 123.406 79.2222 123.588C79.2742 123.77 79.3002 123.942 79.3002 124.102C79.3002 124.527 79.1919 124.891 78.9752 125.194C78.7629 125.493 78.4574 125.725 78.0587 125.889C77.6644 126.05 77.1942 126.13 76.6482 126.13ZM82.3441 119.279V126H81.0051V119.279H82.3441ZM82.3701 116.607V117.979H80.9726V116.607H82.3701ZM86.2259 126.13C85.7926 126.13 85.4069 126.052 85.0689 125.896C84.7353 125.74 84.4731 125.515 84.2824 125.22C84.0918 124.925 83.9964 124.57 83.9964 124.154C83.9964 123.409 84.2608 122.852 84.7894 122.483C85.3181 122.115 86.1609 121.92 87.3179 121.898L88.4229 121.866V121.378C88.4229 120.993 88.3081 120.689 88.0784 120.468C87.8488 120.247 87.4956 120.139 87.0189 120.143C86.6593 120.143 86.3386 120.226 86.0569 120.39C85.7796 120.555 85.5976 120.826 85.5109 121.203H84.3019C84.3279 120.757 84.4558 120.382 84.6854 120.078C84.9194 119.771 85.2401 119.539 85.6474 119.383C86.0548 119.227 86.5336 119.149 87.0839 119.149C87.6949 119.149 88.1976 119.233 88.5919 119.402C88.9863 119.567 89.2788 119.81 89.4694 120.13C89.6644 120.451 89.7619 120.841 89.7619 121.3V126H88.5854L88.4749 124.765C88.2236 125.281 87.9051 125.638 87.5194 125.837C87.1381 126.033 86.7069 126.13 86.2259 126.13ZM86.6614 125.161C86.8738 125.161 87.0839 125.125 87.2919 125.051C87.4999 124.973 87.6884 124.869 87.8574 124.739C88.0264 124.605 88.1608 124.455 88.2604 124.29C88.3644 124.126 88.4186 123.957 88.4229 123.783V122.672L87.5129 122.691C87.0493 122.696 86.6549 122.743 86.3299 122.834C86.0093 122.925 85.7623 123.066 85.5889 123.257C85.4199 123.448 85.3354 123.701 85.3354 124.017C85.3354 124.377 85.4611 124.659 85.7124 124.862C85.9638 125.062 86.2801 125.161 86.6614 125.161Z" fill="#1C252E"/>
<path d="M49.94 147.806C50.804 147.806 51.578 147.947 52.262 148.229C52.946 148.505 53.486 148.913 53.882 149.453C54.284 149.987 54.485 150.641 54.485 151.415C54.485 152.105 54.299 152.687 53.927 153.161C53.555 153.629 53.084 153.989 52.514 154.241C52.928 154.325 53.33 154.526 53.72 154.844C54.11 155.156 54.431 155.54 54.683 155.996C54.935 156.452 55.061 156.929 55.061 157.427C55.061 158.189 54.848 158.852 54.422 159.416C54.002 159.98 53.405 160.418 52.631 160.73C51.863 161.036 50.966 161.189 49.94 161.189C48.914 161.189 48.017 161.036 47.249 160.73C46.487 160.418 45.893 159.98 45.467 159.416C45.041 158.852 44.828 158.189 44.828 157.427C44.828 156.929 44.951 156.452 45.197 155.996C45.449 155.54 45.77 155.156 46.16 154.844C46.55 154.526 46.952 154.325 47.366 154.241C46.808 153.989 46.34 153.629 45.962 153.161C45.584 152.687 45.395 152.105 45.395 151.415C45.395 150.641 45.593 149.987 45.989 149.453C46.385 148.913 46.925 148.505 47.609 148.229C48.299 147.947 49.076 147.806 49.94 147.806ZM49.94 153.368C50.624 153.368 51.182 153.194 51.614 152.846C52.052 152.492 52.271 152 52.271 151.37C52.271 150.746 52.052 150.251 51.614 149.885C51.176 149.519 50.618 149.336 49.94 149.336C49.262 149.336 48.701 149.519 48.257 149.885C47.819 150.251 47.6 150.746 47.6 151.37C47.6 152 47.819 152.492 48.257 152.846C48.701 153.194 49.262 153.368 49.94 153.368ZM49.94 159.497C50.798 159.497 51.476 159.305 51.974 158.921C52.472 158.537 52.721 158.024 52.721 157.382C52.721 156.956 52.607 156.581 52.379 156.257C52.151 155.927 51.83 155.669 51.416 155.483C51.002 155.297 50.51 155.204 49.94 155.204C49.376 155.204 48.884 155.297 48.464 155.483C48.05 155.669 47.729 155.927 47.501 156.257C47.279 156.581 47.168 156.956 47.168 157.382C47.168 158.024 47.417 158.537 47.915 158.921C48.419 159.305 49.094 159.497 49.94 159.497ZM56.8188 161V158.48H59.2938V161H56.8188ZM61.7788 161V159.83V159.227C61.7788 158.561 61.9018 157.988 62.1478 157.508C62.3938 157.022 62.7208 156.599 63.1288 156.239C63.5368 155.879 63.9838 155.561 64.4698 155.285C64.9618 155.003 65.4478 154.739 65.9278 154.493C66.4138 154.241 66.8608 153.983 67.2688 153.719C67.6768 153.449 68.0038 153.149 68.2498 152.819C68.5018 152.489 68.6278 152.096 68.6278 151.64C68.6278 151.058 68.4208 150.584 68.0068 150.218C67.5988 149.846 67.0438 149.66 66.3418 149.66C65.5978 149.66 64.9828 149.873 64.4968 150.299C64.0168 150.725 63.7318 151.325 63.6418 152.099H61.5178C61.5298 151.307 61.7188 150.587 62.0848 149.939C62.4508 149.291 62.9938 148.775 63.7138 148.391C64.4338 148.001 65.3308 147.806 66.4048 147.806C67.3348 147.806 68.1358 147.968 68.8078 148.292C69.4858 148.61 70.0078 149.057 70.3738 149.633C70.7458 150.203 70.9318 150.869 70.9318 151.631C70.9318 152.297 70.8088 152.867 70.5628 153.341C70.3228 153.815 70.0018 154.226 69.5998 154.574C69.2038 154.916 68.7658 155.219 68.2858 155.483C67.8118 155.747 67.3348 155.996 66.8548 156.23C66.3808 156.458 65.9428 156.698 65.5408 156.95C65.1448 157.196 64.8238 157.478 64.5778 157.796C64.3378 158.114 64.2178 158.495 64.2178 158.939V159.128H70.9588V161H61.7788ZM81.6812 161H79.4582L76.7582 156.689L75.2462 158.273V161H73.0682V147.626H75.2462V155.915L79.1072 151.694H81.5102L78.1442 155.33L81.6812 161Z" fill="#1C252E"/>
<path d="M115 121C115 117.686 117.686 115 121 115C124.314 115 127 117.686 127 121C127 124.314 124.314 127 121 127C117.686 127 115 124.314 115 121Z" fill="#FFAB00"/>
<path d="M136.19 126V116.601H142.261L142.254 117.81H137.587V120.663H141.754V121.853H137.581V124.771L142.371 124.778V126H136.19ZM146.436 126.13C146.098 126.126 145.775 126.076 145.467 125.98C145.16 125.885 144.885 125.742 144.642 125.551C144.404 125.361 144.213 125.125 144.07 124.843C143.931 124.561 143.862 124.234 143.862 123.861V119.279H145.259V123.712C145.259 124.115 145.385 124.442 145.636 124.693C145.888 124.945 146.267 125.07 146.774 125.07C147.233 125.07 147.602 124.951 147.879 124.713C148.156 124.47 148.295 124.117 148.295 123.653V119.279H149.679V126H148.6L148.444 124.7C148.366 125.051 148.226 125.333 148.022 125.545C147.823 125.753 147.584 125.905 147.307 126C147.034 126.091 146.744 126.134 146.436 126.13ZM151.545 126V119.279H152.878V120.657C152.99 120.328 153.146 120.052 153.346 119.831C153.549 119.606 153.785 119.437 154.054 119.324C154.323 119.207 154.607 119.149 154.906 119.149C154.997 119.149 155.083 119.155 155.166 119.169C155.248 119.177 155.313 119.194 155.361 119.22V120.559C155.304 120.533 155.231 120.516 155.14 120.507C155.053 120.499 154.977 120.492 154.912 120.488C154.617 120.466 154.349 120.481 154.106 120.533C153.863 120.585 153.653 120.672 153.476 120.793C153.302 120.915 153.168 121.073 153.073 121.268C152.982 121.463 152.936 121.693 152.936 121.957V126H151.545ZM159.264 126.13C158.636 126.13 158.086 125.996 157.613 125.727C157.145 125.454 156.781 125.06 156.521 124.544C156.266 124.028 156.138 123.404 156.138 122.672C156.138 121.966 156.259 121.348 156.502 120.819C156.749 120.291 157.106 119.881 157.574 119.591C158.042 119.296 158.608 119.149 159.271 119.149C159.903 119.149 160.452 119.288 160.915 119.565C161.379 119.838 161.739 120.239 161.994 120.767C162.25 121.292 162.378 121.927 162.378 122.672C162.378 123.352 162.256 123.952 162.014 124.472C161.775 124.992 161.424 125.4 160.961 125.694C160.501 125.985 159.936 126.13 159.264 126.13ZM159.271 125.057C159.652 125.057 159.971 124.958 160.226 124.758C160.486 124.555 160.681 124.271 160.811 123.907C160.941 123.539 161.006 123.114 161.006 122.633C161.006 122.187 160.948 121.781 160.831 121.417C160.718 121.049 160.534 120.757 160.278 120.54C160.023 120.323 159.687 120.215 159.271 120.215C158.881 120.215 158.556 120.315 158.296 120.514C158.036 120.709 157.839 120.988 157.704 121.352C157.574 121.712 157.509 122.139 157.509 122.633C157.509 123.071 157.568 123.474 157.685 123.842C157.802 124.21 157.99 124.505 158.25 124.726C158.51 124.947 158.85 125.057 159.271 125.057ZM163.872 128.093V119.279H165.263L165.276 120.397C165.359 120.25 165.465 120.104 165.595 119.961C165.725 119.814 165.879 119.68 166.056 119.558C166.238 119.433 166.444 119.333 166.674 119.259C166.908 119.186 167.166 119.149 167.447 119.149C167.976 119.149 168.442 119.272 168.845 119.519C169.252 119.762 169.568 120.137 169.794 120.644C170.023 121.147 170.138 121.786 170.138 122.561C170.138 123.341 170.023 123.996 169.794 124.524C169.568 125.053 169.246 125.454 168.825 125.727C168.405 125.996 167.907 126.13 167.33 126.13C167.053 126.13 166.804 126.091 166.583 126.013C166.362 125.935 166.167 125.833 165.998 125.707C165.829 125.577 165.684 125.439 165.562 125.291C165.445 125.14 165.348 124.99 165.27 124.843V128.093H163.872ZM167.038 125.07C167.553 125.07 167.976 124.871 168.305 124.472C168.639 124.069 168.806 123.441 168.806 122.587C168.806 121.855 168.652 121.277 168.344 120.852C168.041 120.423 167.605 120.208 167.038 120.208C166.453 120.208 166.011 120.432 165.712 120.878C165.413 121.32 165.263 121.89 165.263 122.587C165.263 123.042 165.328 123.458 165.458 123.835C165.593 124.208 165.792 124.507 166.056 124.732C166.321 124.958 166.648 125.07 167.038 125.07ZM172.682 122.964C172.682 123.367 172.747 123.729 172.877 124.05C173.011 124.366 173.213 124.618 173.482 124.804C173.75 124.986 174.084 125.077 174.483 125.077C174.881 125.077 175.226 124.986 175.516 124.804C175.811 124.622 176.004 124.351 176.095 123.991H177.382C177.304 124.451 177.119 124.841 176.829 125.161C176.543 125.482 176.196 125.725 175.789 125.889C175.382 126.05 174.955 126.13 174.509 126.13C173.872 126.13 173.31 125.994 172.825 125.72C172.34 125.443 171.961 125.049 171.688 124.537C171.419 124.026 171.285 123.417 171.285 122.711C171.285 122.013 171.408 121.398 171.655 120.865C171.902 120.328 172.26 119.907 172.728 119.604C173.196 119.301 173.759 119.149 174.418 119.149C175.068 119.149 175.614 119.288 176.056 119.565C176.502 119.842 176.84 120.232 177.07 120.735C177.299 121.233 177.414 121.823 177.414 122.503V122.964H172.682ZM172.682 122.061H176.088C176.088 121.71 176.027 121.391 175.906 121.105C175.785 120.815 175.598 120.588 175.347 120.423C175.1 120.254 174.788 120.169 174.411 120.169C174.025 120.169 173.705 120.263 173.449 120.449C173.193 120.635 173.001 120.874 172.871 121.164C172.745 121.454 172.682 121.753 172.682 122.061Z" fill="#1C252E"/>
<path d="M120.94 147.806C121.804 147.806 122.578 147.947 123.262 148.229C123.946 148.505 124.486 148.913 124.882 149.453C125.284 149.987 125.485 150.641 125.485 151.415C125.485 152.105 125.299 152.687 124.927 153.161C124.555 153.629 124.084 153.989 123.514 154.241C123.928 154.325 124.33 154.526 124.72 154.844C125.11 155.156 125.431 155.54 125.683 155.996C125.935 156.452 126.061 156.929 126.061 157.427C126.061 158.189 125.848 158.852 125.422 159.416C125.002 159.98 124.405 160.418 123.631 160.73C122.863 161.036 121.966 161.189 120.94 161.189C119.914 161.189 119.017 161.036 118.249 160.73C117.487 160.418 116.893 159.98 116.467 159.416C116.041 158.852 115.828 158.189 115.828 157.427C115.828 156.929 115.951 156.452 116.197 155.996C116.449 155.54 116.77 155.156 117.16 154.844C117.55 154.526 117.952 154.325 118.366 154.241C117.808 153.989 117.34 153.629 116.962 153.161C116.584 152.687 116.395 152.105 116.395 151.415C116.395 150.641 116.593 149.987 116.989 149.453C117.385 148.913 117.925 148.505 118.609 148.229C119.299 147.947 120.076 147.806 120.94 147.806ZM120.94 153.368C121.624 153.368 122.182 153.194 122.614 152.846C123.052 152.492 123.271 152 123.271 151.37C123.271 150.746 123.052 150.251 122.614 149.885C122.176 149.519 121.618 149.336 120.94 149.336C120.262 149.336 119.701 149.519 119.257 149.885C118.819 150.251 118.6 150.746 118.6 151.37C118.6 152 118.819 152.492 119.257 152.846C119.701 153.194 120.262 153.368 120.94 153.368ZM120.94 159.497C121.798 159.497 122.476 159.305 122.974 158.921C123.472 158.537 123.721 158.024 123.721 157.382C123.721 156.956 123.607 156.581 123.379 156.257C123.151 155.927 122.83 155.669 122.416 155.483C122.002 155.297 121.51 155.204 120.94 155.204C120.376 155.204 119.884 155.297 119.464 155.483C119.05 155.669 118.729 155.927 118.501 156.257C118.279 156.581 118.168 156.956 118.168 157.382C118.168 158.024 118.417 158.537 118.915 158.921C119.419 159.305 120.094 159.497 120.94 159.497ZM132.915 147.806C133.683 147.806 134.394 147.95 135.048 148.238C135.702 148.52 136.239 148.928 136.659 149.462C137.079 149.996 137.325 150.641 137.397 151.397H135.372C135.204 150.815 134.916 150.365 134.508 150.047C134.1 149.729 133.584 149.57 132.96 149.57C132.27 149.57 131.694 149.765 131.232 150.155C130.77 150.545 130.437 151.106 130.233 151.838C130.035 152.564 129.972 153.434 130.044 154.448C130.23 154.094 130.482 153.788 130.8 153.53C131.118 153.266 131.481 153.062 131.889 152.918C132.297 152.774 132.729 152.702 133.185 152.702C134.055 152.702 134.817 152.867 135.471 153.197C136.125 153.527 136.635 153.995 137.001 154.601C137.367 155.207 137.55 155.924 137.55 156.752C137.55 157.61 137.352 158.375 136.956 159.047C136.56 159.713 136.005 160.238 135.291 160.622C134.577 161.006 133.743 161.198 132.789 161.198C131.727 161.198 130.809 160.934 130.035 160.406C129.261 159.878 128.664 159.131 128.244 158.165C127.83 157.193 127.623 156.044 127.623 154.718C127.623 153.308 127.83 152.087 128.244 151.055C128.658 150.017 129.258 149.216 130.044 148.652C130.836 148.088 131.793 147.806 132.915 147.806ZM132.726 154.385C132.312 154.385 131.91 154.481 131.52 154.673C131.136 154.865 130.821 155.114 130.575 155.42C130.335 155.726 130.215 156.053 130.215 156.401C130.209 157.019 130.311 157.559 130.521 158.021C130.731 158.483 131.025 158.843 131.403 159.101C131.787 159.353 132.231 159.479 132.735 159.479C133.203 159.479 133.623 159.368 133.995 159.146C134.373 158.924 134.67 158.615 134.886 158.219C135.108 157.823 135.219 157.367 135.219 156.851C135.219 156.323 135.117 155.876 134.913 155.51C134.709 155.144 134.418 154.865 134.04 154.673C133.668 154.481 133.23 154.385 132.726 154.385ZM139.297 161V158.48H141.772V161H139.297ZM148.964 147.806C149.732 147.806 150.443 147.95 151.097 148.238C151.751 148.52 152.288 148.928 152.708 149.462C153.128 149.996 153.374 150.641 153.446 151.397H151.421C151.253 150.815 150.965 150.365 150.557 150.047C150.149 149.729 149.633 149.57 149.009 149.57C148.319 149.57 147.743 149.765 147.281 150.155C146.819 150.545 146.486 151.106 146.282 151.838C146.084 152.564 146.021 153.434 146.093 154.448C146.279 154.094 146.531 153.788 146.849 153.53C147.167 153.266 147.53 153.062 147.938 152.918C148.346 152.774 148.778 152.702 149.234 152.702C150.104 152.702 150.866 152.867 151.52 153.197C152.174 153.527 152.684 153.995 153.05 154.601C153.416 155.207 153.599 155.924 153.599 156.752C153.599 157.61 153.401 158.375 153.005 159.047C152.609 159.713 152.054 160.238 151.34 160.622C150.626 161.006 149.792 161.198 148.838 161.198C147.776 161.198 146.858 160.934 146.084 160.406C145.31 159.878 144.713 159.131 144.293 158.165C143.879 157.193 143.672 156.044 143.672 154.718C143.672 153.308 143.879 152.087 144.293 151.055C144.707 150.017 145.307 149.216 146.093 148.652C146.885 148.088 147.842 147.806 148.964 147.806ZM148.775 154.385C148.361 154.385 147.959 154.481 147.569 154.673C147.185 154.865 146.87 155.114 146.624 155.42C146.384 155.726 146.264 156.053 146.264 156.401C146.258 157.019 146.36 157.559 146.57 158.021C146.78 158.483 147.074 158.843 147.452 159.101C147.836 159.353 148.28 159.479 148.784 159.479C149.252 159.479 149.672 159.368 150.044 159.146C150.422 158.924 150.719 158.615 150.935 158.219C151.157 157.823 151.268 157.367 151.268 156.851C151.268 156.323 151.166 155.876 150.962 155.51C150.758 155.144 150.467 154.865 150.089 154.673C149.717 154.481 149.279 154.385 148.775 154.385ZM164.265 161H162.042L159.342 156.689L157.83 158.273V161H155.652V147.626H157.83V155.915L161.691 151.694H164.094L160.728 155.33L164.265 161Z" fill="#1C252E"/>
<path d="M203 121C203 117.686 205.686 115 209 115C212.314 115 215 117.686 215 121C215 124.314 212.314 127 209 127C205.686 127 203 124.314 203 121Z" fill="#00B8D9"/>
<path d="M223.488 126L226.881 116.601H228.415L231.801 126H230.397L229.513 123.536H225.802L224.898 126H223.488ZM226.133 122.275H229.156L227.654 117.966L226.133 122.275ZM233.235 126V119.279H234.587V120.247C234.778 119.953 235.038 119.697 235.367 119.48C235.697 119.259 236.121 119.149 236.641 119.149C236.884 119.149 237.129 119.19 237.376 119.272C237.627 119.355 237.857 119.478 238.065 119.643C238.277 119.803 238.444 120.003 238.565 120.241C238.778 119.92 239.062 119.658 239.417 119.454C239.772 119.251 240.171 119.149 240.613 119.149C240.851 119.149 241.098 119.188 241.354 119.266C241.61 119.34 241.846 119.467 242.062 119.649C242.283 119.827 242.461 120.074 242.595 120.39C242.734 120.707 242.803 121.108 242.803 121.593V126H241.406V121.742C241.406 121.374 241.343 121.086 241.217 120.878C241.096 120.67 240.936 120.525 240.736 120.442C240.541 120.356 240.333 120.312 240.112 120.312C239.913 120.312 239.705 120.351 239.488 120.429C239.272 120.507 239.088 120.637 238.936 120.819C238.784 121.001 238.708 121.248 238.708 121.56V126H237.317V121.443C237.317 121.196 237.25 120.988 237.116 120.819C236.986 120.65 236.821 120.525 236.622 120.442C236.427 120.356 236.232 120.312 236.037 120.312C235.82 120.312 235.604 120.356 235.387 120.442C235.17 120.529 234.988 120.666 234.841 120.852C234.698 121.034 234.626 121.27 234.626 121.56V126H233.235ZM245.638 122.964C245.638 123.367 245.703 123.729 245.833 124.05C245.967 124.366 246.169 124.618 246.438 124.804C246.706 124.986 247.04 125.077 247.439 125.077C247.837 125.077 248.182 124.986 248.472 124.804C248.767 124.622 248.96 124.351 249.051 123.991H250.338C250.26 124.451 250.075 124.841 249.785 125.161C249.499 125.482 249.152 125.725 248.745 125.889C248.338 126.05 247.911 126.13 247.465 126.13C246.828 126.13 246.266 125.994 245.781 125.72C245.296 125.443 244.917 125.049 244.644 124.537C244.375 124.026 244.241 123.417 244.241 122.711C244.241 122.013 244.364 121.398 244.611 120.865C244.858 120.328 245.216 119.907 245.684 119.604C246.152 119.301 246.715 119.149 247.374 119.149C248.024 119.149 248.57 119.288 249.012 119.565C249.458 119.842 249.796 120.232 250.026 120.735C250.255 121.233 250.37 121.823 250.37 122.503V122.964H245.638ZM245.638 122.061H249.044C249.044 121.71 248.983 121.391 248.862 121.105C248.741 120.815 248.554 120.588 248.303 120.423C248.056 120.254 247.744 120.169 247.367 120.169C246.981 120.169 246.661 120.263 246.405 120.449C246.149 120.635 245.957 120.874 245.827 121.164C245.701 121.454 245.638 121.753 245.638 122.061ZM251.923 126V119.279H253.255V120.657C253.368 120.328 253.524 120.052 253.723 119.831C253.927 119.606 254.163 119.437 254.432 119.324C254.701 119.207 254.984 119.149 255.283 119.149C255.374 119.149 255.461 119.155 255.543 119.169C255.626 119.177 255.691 119.194 255.738 119.22V120.559C255.682 120.533 255.608 120.516 255.517 120.507C255.431 120.499 255.355 120.492 255.29 120.488C254.995 120.466 254.727 120.481 254.484 120.533C254.241 120.585 254.031 120.672 253.853 120.793C253.68 120.915 253.546 121.073 253.45 121.268C253.359 121.463 253.314 121.693 253.314 121.957V126H251.923ZM258.495 119.279V126H257.156V119.279H258.495ZM258.521 116.607V117.979H257.124V116.607H258.521ZM263.229 119.149C263.731 119.149 264.178 119.249 264.568 119.448C264.962 119.643 265.281 119.916 265.523 120.267C265.766 120.618 265.913 121.027 265.965 121.495H264.763C264.724 121.274 264.639 121.069 264.509 120.878C264.384 120.687 264.212 120.536 263.996 120.423C263.783 120.306 263.53 120.247 263.235 120.247C262.698 120.247 262.26 120.445 261.922 120.839C261.584 121.233 261.415 121.838 261.415 122.652C261.415 123.398 261.571 123.991 261.883 124.433C262.2 124.875 262.659 125.096 263.261 125.096C263.552 125.096 263.803 125.036 264.015 124.914C264.232 124.793 264.403 124.637 264.529 124.446C264.654 124.256 264.735 124.059 264.769 123.855H265.952C265.905 124.306 265.757 124.702 265.51 125.045C265.268 125.387 264.949 125.653 264.555 125.844C264.165 126.035 263.723 126.13 263.229 126.13C262.618 126.13 262.076 125.998 261.604 125.733C261.131 125.465 260.761 125.073 260.492 124.557C260.228 124.037 260.096 123.406 260.096 122.665C260.096 121.968 260.219 121.355 260.466 120.826C260.713 120.297 261.071 119.886 261.539 119.591C262.011 119.296 262.574 119.149 263.229 119.149ZM269.309 126.13C268.876 126.13 268.49 126.052 268.152 125.896C267.818 125.74 267.556 125.515 267.365 125.22C267.175 124.925 267.079 124.57 267.079 124.154C267.079 123.409 267.344 122.852 267.872 122.483C268.401 122.115 269.244 121.92 270.401 121.898L271.506 121.866V121.378C271.506 120.993 271.391 120.689 271.161 120.468C270.932 120.247 270.579 120.139 270.102 120.143C269.742 120.143 269.422 120.226 269.14 120.39C268.863 120.555 268.681 120.826 268.594 121.203H267.385C267.411 120.757 267.539 120.382 267.768 120.078C268.002 119.771 268.323 119.539 268.73 119.383C269.138 119.227 269.617 119.149 270.167 119.149C270.778 119.149 271.281 119.233 271.675 119.402C272.069 119.567 272.362 119.81 272.552 120.13C272.747 120.451 272.845 120.841 272.845 121.3V126H271.668L271.558 124.765C271.307 125.281 270.988 125.638 270.602 125.837C270.221 126.033 269.79 126.13 269.309 126.13ZM269.744 125.161C269.957 125.161 270.167 125.125 270.375 125.051C270.583 124.973 270.771 124.869 270.94 124.739C271.109 124.605 271.244 124.455 271.343 124.29C271.447 124.126 271.502 123.957 271.506 123.783V122.672L270.596 122.691C270.132 122.696 269.738 122.743 269.413 122.834C269.092 122.925 268.845 123.066 268.672 123.257C268.503 123.448 268.418 123.701 268.418 124.017C268.418 124.377 268.544 124.659 268.795 124.862C269.047 125.062 269.363 125.161 269.744 125.161ZM277.162 126.13C276.694 126.13 276.254 126.056 275.842 125.909C275.435 125.762 275.093 125.53 274.815 125.213C274.542 124.897 274.371 124.492 274.302 123.998H275.543C275.6 124.254 275.706 124.466 275.862 124.635C276.022 124.8 276.213 124.923 276.434 125.005C276.659 125.083 276.9 125.122 277.155 125.122C277.58 125.122 277.922 125.047 278.182 124.895C278.447 124.739 278.579 124.501 278.579 124.18C278.579 123.95 278.507 123.766 278.364 123.627C278.226 123.489 278.005 123.387 277.701 123.322L276.362 123.003C275.808 122.873 275.364 122.668 275.03 122.386C274.696 122.1 274.527 121.701 274.523 121.19C274.523 120.796 274.62 120.445 274.815 120.137C275.015 119.829 275.309 119.589 275.699 119.415C276.089 119.238 276.575 119.149 277.155 119.149C277.914 119.149 278.523 119.318 278.982 119.656C279.441 119.994 279.68 120.484 279.697 121.125H278.494C278.451 120.817 278.31 120.577 278.072 120.403C277.838 120.226 277.528 120.137 277.142 120.137C276.744 120.137 276.417 120.217 276.161 120.377C275.905 120.533 275.777 120.774 275.777 121.099C275.777 121.32 275.871 121.495 276.057 121.625C276.243 121.751 276.523 121.855 276.895 121.938L278.169 122.256C278.499 122.343 278.77 122.457 278.982 122.6C279.194 122.739 279.361 122.893 279.482 123.062C279.604 123.231 279.688 123.406 279.736 123.588C279.788 123.77 279.814 123.942 279.814 124.102C279.814 124.527 279.706 124.891 279.489 125.194C279.277 125.493 278.971 125.725 278.572 125.889C278.178 126.05 277.708 126.13 277.162 126.13Z" fill="#1C252E"/>
<path d="M203.801 147.986H213.26V149.813C212.822 150.383 212.387 151.043 211.955 151.793C211.523 152.537 211.109 153.326 210.713 154.16C210.317 154.988 209.963 155.819 209.651 156.653C209.339 157.481 209.084 158.27 208.886 159.02C208.688 159.77 208.568 160.43 208.526 161H206.159C206.231 160.442 206.375 159.746 206.591 158.912C206.813 158.072 207.116 157.148 207.5 156.14C207.884 155.126 208.361 154.079 208.931 152.999C209.501 151.919 210.167 150.857 210.929 149.813H203.801V147.986ZM214.738 151.892C214.738 151.004 214.951 150.257 215.377 149.651C215.803 149.039 216.373 148.58 217.087 148.274C217.807 147.962 218.605 147.806 219.481 147.806C220.423 147.806 221.257 147.935 221.983 148.193C222.715 148.445 223.288 148.826 223.702 149.336C224.122 149.846 224.332 150.479 224.332 151.235C224.332 151.877 224.137 152.45 223.747 152.954C223.357 153.458 222.742 153.854 221.902 154.142C222.424 154.286 222.892 154.502 223.306 154.79C223.72 155.072 224.047 155.426 224.287 155.852C224.533 156.278 224.656 156.779 224.656 157.355C224.656 157.973 224.521 158.522 224.251 159.002C223.987 159.482 223.615 159.887 223.135 160.217C222.661 160.541 222.106 160.787 221.47 160.955C220.834 161.117 220.15 161.198 219.418 161.198C218.44 161.192 217.597 161.024 216.889 160.694C216.181 160.364 215.629 159.893 215.233 159.281C214.843 158.669 214.639 157.943 214.621 157.103H216.754C216.88 157.877 217.186 158.453 217.672 158.831C218.164 159.203 218.761 159.389 219.463 159.389C220.045 159.389 220.549 159.302 220.975 159.128C221.401 158.948 221.728 158.702 221.956 158.39C222.19 158.078 222.307 157.715 222.307 157.301C222.307 156.863 222.181 156.488 221.929 156.176C221.683 155.864 221.344 155.624 220.912 155.456C220.48 155.288 219.994 155.198 219.454 155.186L218.248 155.15V153.368L219.364 153.323C219.88 153.305 220.333 153.206 220.723 153.026C221.119 152.846 221.428 152.609 221.65 152.315C221.872 152.021 221.983 151.691 221.983 151.325C221.983 150.989 221.878 150.686 221.668 150.416C221.464 150.146 221.173 149.936 220.795 149.786C220.417 149.63 219.97 149.552 219.454 149.552C219.016 149.552 218.605 149.63 218.221 149.786C217.837 149.942 217.519 150.194 217.267 150.542C217.021 150.884 216.886 151.334 216.862 151.892H214.738ZM226.418 161V158.48H228.893V161H226.418ZM235.374 161.198C234.612 161.198 233.898 161.051 233.232 160.757C232.566 160.463 232.017 160.046 231.585 159.506C231.153 158.966 230.901 158.33 230.829 157.598H232.926C233.052 158.144 233.325 158.588 233.745 158.93C234.165 159.266 234.681 159.434 235.293 159.434C235.983 159.434 236.58 159.263 237.084 158.921C237.594 158.579 237.975 158.042 238.227 157.31C238.479 156.578 238.572 155.627 238.506 154.457C238.344 154.841 238.107 155.177 237.795 155.465C237.489 155.753 237.123 155.978 236.697 156.14C236.277 156.296 235.809 156.374 235.293 156.374C234.423 156.374 233.652 156.209 232.98 155.879C232.314 155.543 231.792 155.066 231.414 154.448C231.036 153.824 230.847 153.086 230.847 152.234C230.847 151.37 231.039 150.605 231.423 149.939C231.813 149.273 232.359 148.751 233.061 148.373C233.769 147.995 234.6 147.806 235.554 147.806C236.616 147.806 237.534 148.067 238.308 148.589C239.082 149.111 239.676 149.855 240.09 150.821C240.51 151.787 240.72 152.933 240.72 154.259C240.72 155.771 240.507 157.043 240.081 158.075C239.661 159.101 239.052 159.878 238.254 160.406C237.462 160.934 236.502 161.198 235.374 161.198ZM235.617 154.592C236.037 154.592 236.439 154.496 236.823 154.304C237.207 154.112 237.522 153.863 237.768 153.557C238.014 153.251 238.137 152.927 238.137 152.585C238.143 151.961 238.041 151.421 237.831 150.965C237.621 150.503 237.324 150.146 236.94 149.894C236.562 149.636 236.118 149.507 235.608 149.507C235.146 149.507 234.732 149.618 234.366 149.84C234.006 150.062 233.724 150.371 233.52 150.767C233.316 151.157 233.214 151.61 233.214 152.126C233.214 152.894 233.427 153.497 233.853 153.935C234.279 154.373 234.867 154.592 235.617 154.592ZM251.386 161H249.163L246.463 156.689L244.951 158.273V161H242.773V147.626H244.951V155.915L248.812 151.694H251.215L247.849 155.33L251.386 161Z" fill="#1C252E"/>
<path d="M50.7203 205V198.094H49.0463V197.368C49.5663 197.368 49.9703 197.33 50.2583 197.254C50.5463 197.178 50.7503 197.062 50.8703 196.906C50.9943 196.75 51.0623 196.556 51.0743 196.324H51.8663V205H50.7203ZM57.053 196.204C57.993 196.204 58.741 196.582 59.297 197.338C59.857 198.09 60.137 199.204 60.137 200.68C60.137 202.148 59.859 203.258 59.303 204.01C58.747 204.758 57.993 205.132 57.041 205.132C56.093 205.132 55.341 204.76 54.785 204.016C54.229 203.268 53.951 202.162 53.951 200.698C53.951 199.71 54.079 198.882 54.335 198.214C54.591 197.546 54.951 197.044 55.415 196.708C55.879 196.372 56.425 196.204 57.053 196.204ZM57.053 204.172C57.673 204.172 58.141 203.9 58.457 203.356C58.777 202.808 58.937 201.918 58.937 200.686C58.937 199.43 58.775 198.526 58.451 197.974C58.131 197.418 57.663 197.14 57.047 197.14C56.435 197.14 55.963 197.42 55.631 197.98C55.303 198.536 55.139 199.438 55.139 200.686C55.139 201.914 55.303 202.802 55.631 203.35C55.959 203.898 56.433 204.172 57.053 204.172ZM64.3303 196.204C65.2703 196.204 66.0183 196.582 66.5743 197.338C67.1343 198.09 67.4143 199.204 67.4143 200.68C67.4143 202.148 67.1363 203.258 66.5803 204.01C66.0243 204.758 65.2703 205.132 64.3183 205.132C63.3703 205.132 62.6183 204.76 62.0623 204.016C61.5063 203.268 61.2283 202.162 61.2283 200.698C61.2283 199.71 61.3563 198.882 61.6123 198.214C61.8683 197.546 62.2283 197.044 62.6923 196.708C63.1563 196.372 63.7023 196.204 64.3303 196.204ZM64.3303 204.172C64.9503 204.172 65.4183 203.9 65.7343 203.356C66.0543 202.808 66.2143 201.918 66.2143 200.686C66.2143 199.43 66.0523 198.526 65.7283 197.974C65.4083 197.418 64.9403 197.14 64.3243 197.14C63.7123 197.14 63.2403 197.42 62.9083 197.98C62.5803 198.536 62.4163 199.438 62.4163 200.686C62.4163 201.914 62.5803 202.802 62.9083 203.35C63.2363 203.898 63.7103 204.172 64.3303 204.172Z" fill="#919EAB"/>
<path d="M56.8351 240.604C57.3911 240.604 57.8891 240.696 58.3291 240.88C58.7691 241.064 59.1171 241.332 59.3731 241.684C59.6291 242.036 59.7571 242.464 59.7571 242.968C59.7571 243.44 59.6291 243.836 59.3731 244.156C59.1211 244.476 58.7951 244.72 58.3951 244.888C58.6871 244.944 58.9651 245.08 59.2291 245.296C59.4971 245.512 59.7171 245.774 59.8891 246.082C60.0611 246.39 60.1471 246.712 60.1471 247.048C60.1471 247.548 60.0091 247.984 59.7331 248.356C59.4611 248.728 59.0771 249.018 58.5811 249.226C58.0851 249.43 57.5031 249.532 56.8351 249.532C56.1711 249.532 55.5911 249.43 55.0951 249.226C54.5991 249.018 54.2131 248.728 53.9371 248.356C53.6651 247.984 53.5291 247.548 53.5291 247.048C53.5291 246.712 53.6131 246.39 53.7811 246.082C53.9531 245.774 54.1731 245.512 54.4411 245.296C54.7091 245.08 54.9891 244.944 55.2811 244.888C54.8851 244.72 54.5571 244.476 54.2971 244.156C54.0411 243.836 53.9131 243.44 53.9131 242.968C53.9131 242.464 54.0411 242.036 54.2971 241.684C54.5531 241.332 54.9011 241.064 55.3411 240.88C55.7851 240.696 56.2831 240.604 56.8351 240.604ZM56.8351 244.42C57.3631 244.42 57.7911 244.29 58.1191 244.03C58.4511 243.77 58.6171 243.408 58.6171 242.944C58.6171 242.476 58.4511 242.108 58.1191 241.84C57.7871 241.568 57.3591 241.432 56.8351 241.432C56.3111 241.432 55.8831 241.568 55.5511 241.84C55.2191 242.112 55.0531 242.48 55.0531 242.944C55.0531 243.408 55.2191 243.77 55.5511 244.03C55.8831 244.29 56.3111 244.42 56.8351 244.42ZM56.8351 248.632C57.4791 248.632 57.9931 248.488 58.3771 248.2C58.7611 247.908 58.9531 247.522 58.9531 247.042C58.9531 246.726 58.8651 246.444 58.6891 246.196C58.5171 245.948 58.2731 245.754 57.9571 245.614C57.6411 245.47 57.2671 245.398 56.8351 245.398C56.4071 245.398 56.0351 245.47 55.7191 245.614C55.4071 245.754 55.1631 245.948 54.9871 246.196C54.8151 246.444 54.7291 246.726 54.7291 247.042C54.7291 247.522 54.9191 247.908 55.2991 248.2C55.6831 248.488 56.1951 248.632 56.8351 248.632ZM64.3303 240.604C65.2703 240.604 66.0183 240.982 66.5743 241.738C67.1343 242.49 67.4143 243.604 67.4143 245.08C67.4143 246.548 67.1363 247.658 66.5803 248.41C66.0243 249.158 65.2703 249.532 64.3183 249.532C63.3703 249.532 62.6183 249.16 62.0623 248.416C61.5063 247.668 61.2283 246.562 61.2283 245.098C61.2283 244.11 61.3563 243.282 61.6123 242.614C61.8683 241.946 62.2283 241.444 62.6923 241.108C63.1563 240.772 63.7023 240.604 64.3303 240.604ZM64.3303 248.572C64.9503 248.572 65.4183 248.3 65.7343 247.756C66.0543 247.208 66.2143 246.318 66.2143 245.086C66.2143 243.83 66.0523 242.926 65.7283 242.374C65.4083 241.818 64.9403 241.54 64.3243 241.54C63.7123 241.54 63.2403 241.82 62.9083 242.38C62.5803 242.936 62.4163 243.838 62.4163 245.086C62.4163 246.314 62.5803 247.202 62.9083 247.75C63.2363 248.298 63.7103 248.572 64.3303 248.572Z" fill="#919EAB"/>
<path d="M57.2298 285.004C57.7098 285.004 58.1518 285.094 58.5558 285.274C58.9638 285.454 59.3018 285.712 59.5698 286.048C59.8378 286.384 60.0038 286.79 60.0678 287.266H59.0238C58.9078 286.854 58.6978 286.528 58.3938 286.288C58.0898 286.048 57.7078 285.928 57.2478 285.928C56.7358 285.928 56.3078 286.074 55.9638 286.366C55.6238 286.654 55.3758 287.078 55.2198 287.638C55.0638 288.194 55.0098 288.878 55.0578 289.69C55.1658 289.398 55.3298 289.142 55.5498 288.922C55.7738 288.698 56.0338 288.526 56.3298 288.406C56.6258 288.282 56.9458 288.22 57.2898 288.22C57.8618 288.22 58.3618 288.332 58.7898 288.556C59.2178 288.776 59.5518 289.092 59.7918 289.504C60.0318 289.912 60.1518 290.4 60.1518 290.968C60.1518 291.548 60.0278 292.062 59.7798 292.51C59.5358 292.954 59.1878 293.302 58.7358 293.554C58.2838 293.806 57.7498 293.932 57.1338 293.932C56.4618 293.932 55.8778 293.758 55.3818 293.41C54.8898 293.062 54.5078 292.566 54.2358 291.922C53.9678 291.274 53.8338 290.498 53.8338 289.594C53.8338 288.666 53.9638 287.858 54.2238 287.17C54.4878 286.482 54.8718 285.95 55.3758 285.574C55.8798 285.194 56.4978 285.004 57.2298 285.004ZM57.1098 289.12C56.7938 289.12 56.4898 289.196 56.1978 289.348C55.9098 289.496 55.6738 289.692 55.4898 289.936C55.3098 290.18 55.2198 290.45 55.2198 290.746C55.2158 291.186 55.2918 291.578 55.4478 291.922C55.6078 292.262 55.8318 292.53 56.1198 292.726C56.4078 292.918 56.7418 293.014 57.1218 293.014C57.4778 293.014 57.7938 292.93 58.0698 292.762C58.3458 292.594 58.5618 292.36 58.7178 292.06C58.8778 291.76 58.9578 291.414 58.9578 291.022C58.9578 290.626 58.8858 290.286 58.7418 290.002C58.6018 289.718 58.3938 289.5 58.1178 289.348C57.8418 289.196 57.5058 289.12 57.1098 289.12ZM64.3303 285.004C65.2703 285.004 66.0183 285.382 66.5743 286.138C67.1343 286.89 67.4143 288.004 67.4143 289.48C67.4143 290.948 67.1363 292.058 66.5803 292.81C66.0243 293.558 65.2703 293.932 64.3183 293.932C63.3703 293.932 62.6183 293.56 62.0623 292.816C61.5063 292.068 61.2283 290.962 61.2283 289.498C61.2283 288.51 61.3563 287.682 61.6123 287.014C61.8683 286.346 62.2283 285.844 62.6923 285.508C63.1563 285.172 63.7023 285.004 64.3303 285.004ZM64.3303 292.972C64.9503 292.972 65.4183 292.7 65.7343 292.156C66.0543 291.608 66.2143 290.718 66.2143 289.486C66.2143 288.23 66.0523 287.326 65.7283 286.774C65.4083 286.218 64.9403 285.94 64.3243 285.94C63.7123 285.94 63.2403 286.22 62.9083 286.78C62.5803 287.336 62.4163 288.238 62.4163 289.486C62.4163 290.714 62.5803 291.602 62.9083 292.15C63.2363 292.698 63.7103 292.972 64.3303 292.972Z" fill="#919EAB"/>
<path d="M57.7075 329.524H58.8355V335.008H60.2755V335.986H58.8355V338.2H57.7495V335.986H53.6635V334.972L57.7075 329.524ZM54.7255 335.008H57.7255V330.982L54.7255 335.008ZM64.3303 329.404C65.2703 329.404 66.0183 329.782 66.5743 330.538C67.1343 331.29 67.4143 332.404 67.4143 333.88C67.4143 335.348 67.1363 336.458 66.5803 337.21C66.0243 337.958 65.2703 338.332 64.3183 338.332C63.3703 338.332 62.6183 337.96 62.0623 337.216C61.5063 336.468 61.2283 335.362 61.2283 333.898C61.2283 332.91 61.3563 332.082 61.6123 331.414C61.8683 330.746 62.2283 330.244 62.6923 329.908C63.1563 329.572 63.7023 329.404 64.3303 329.404ZM64.3303 337.372C64.9503 337.372 65.4183 337.1 65.7343 336.556C66.0543 336.008 66.2143 335.118 66.2143 333.886C66.2143 332.63 66.0523 331.726 65.7283 331.174C65.4083 330.618 64.9403 330.34 64.3243 330.34C63.7123 330.34 63.2403 330.62 62.9083 331.18C62.5803 331.736 62.4163 332.638 62.4163 333.886C62.4163 335.114 62.5803 336.002 62.9083 336.55C63.2363 337.098 63.7103 337.372 64.3303 337.372Z" fill="#919EAB"/>
<path d="M54.2479 382.6V381.922V381.568C54.2479 381.124 54.3299 380.74 54.4939 380.416C54.6619 380.092 54.8819 379.81 55.1539 379.57C55.4299 379.326 55.7299 379.108 56.0539 378.916C56.3819 378.724 56.7079 378.54 57.0319 378.364C57.3599 378.184 57.6599 377.998 57.9319 377.806C58.2039 377.61 58.4219 377.39 58.5859 377.146C58.7539 376.898 58.8379 376.606 58.8379 376.27C58.8379 375.83 58.6819 375.472 58.3699 375.196C58.0619 374.92 57.6439 374.782 57.1159 374.782C56.5479 374.782 56.0919 374.942 55.7479 375.262C55.4039 375.582 55.2099 376.008 55.1659 376.54H54.0619C54.0739 376.04 54.1979 375.584 54.4339 375.172C54.6699 374.756 55.0159 374.424 55.4719 374.176C55.9279 373.928 56.4899 373.804 57.1579 373.804C57.7379 373.804 58.2419 373.908 58.6699 374.116C59.0979 374.32 59.4279 374.608 59.6599 374.98C59.8959 375.348 60.0139 375.778 60.0139 376.27C60.0139 376.718 59.9319 377.102 59.7679 377.422C59.6039 377.742 59.3859 378.02 59.1139 378.256C58.8459 378.488 58.5519 378.696 58.2319 378.88C57.9119 379.064 57.5899 379.242 57.2659 379.414C56.9419 379.582 56.6459 379.76 56.3779 379.948C56.1099 380.132 55.8939 380.344 55.7299 380.584C55.5659 380.824 55.4839 381.11 55.4839 381.442V381.616H60.0619V382.6H54.2479ZM64.3303 373.804C65.2703 373.804 66.0183 374.182 66.5743 374.938C67.1343 375.69 67.4143 376.804 67.4143 378.28C67.4143 379.748 67.1363 380.858 66.5803 381.61C66.0243 382.358 65.2703 382.732 64.3183 382.732C63.3703 382.732 62.6183 382.36 62.0623 381.616C61.5063 380.868 61.2283 379.762 61.2283 378.298C61.2283 377.31 61.3563 376.482 61.6123 375.814C61.8683 375.146 62.2283 374.644 62.6923 374.308C63.1563 373.972 63.7023 373.804 64.3303 373.804ZM64.3303 381.772C64.9503 381.772 65.4183 381.5 65.7343 380.956C66.0543 380.408 66.2143 379.518 66.2143 378.286C66.2143 377.03 66.0523 376.126 65.7283 375.574C65.4083 375.018 64.9403 374.74 64.3243 374.74C63.7123 374.74 63.2403 375.02 62.9083 375.58C62.5803 376.136 62.4163 377.038 62.4163 378.286C62.4163 379.514 62.5803 380.402 62.9083 380.95C63.2363 381.498 63.7103 381.772 64.3303 381.772Z" fill="#919EAB"/>
<path d="M64.3303 418.204C65.2703 418.204 66.0183 418.582 66.5743 419.338C67.1343 420.09 67.4143 421.204 67.4143 422.68C67.4143 424.148 67.1363 425.258 66.5803 426.01C66.0243 426.758 65.2703 427.132 64.3183 427.132C63.3703 427.132 62.6183 426.76 62.0623 426.016C61.5063 425.268 61.2283 424.162 61.2283 422.698C61.2283 421.71 61.3563 420.882 61.6123 420.214C61.8683 419.546 62.2283 419.044 62.6923 418.708C63.1563 418.372 63.7023 418.204 64.3303 418.204ZM64.3303 426.172C64.9503 426.172 65.4183 425.9 65.7343 425.356C66.0543 424.808 66.2143 423.918 66.2143 422.686C66.2143 421.43 66.0523 420.526 65.7283 419.974C65.4083 419.418 64.9403 419.14 64.3243 419.14C63.7123 419.14 63.2403 419.42 62.9083 419.98C62.5803 420.536 62.4163 421.438 62.4163 422.686C62.4163 423.914 62.5803 424.802 62.9083 425.35C63.2363 425.898 63.7103 426.172 64.3303 426.172Z" fill="#919EAB"/>
<path d="M84 200.5H708" stroke="#919EAB" stroke-opacity="0.2" stroke-linecap="square" stroke-dasharray="2 3"/>
<path d="M84 244.9H708" stroke="#919EAB" stroke-opacity="0.2" stroke-linecap="square" stroke-dasharray="2 3"/>
<path d="M84 289.3H708" stroke="#919EAB" stroke-opacity="0.2" stroke-linecap="square" stroke-dasharray="2 3"/>
<path d="M84 333.7H708" stroke="#919EAB" stroke-opacity="0.2" stroke-linecap="square" stroke-dasharray="2 3"/>
<path d="M84 378.1H708" stroke="#919EAB" stroke-opacity="0.2" stroke-linecap="square" stroke-dasharray="2 3"/>
<path d="M84 422.5H708" stroke="#919EAB" stroke-opacity="0.2" stroke-linecap="square" stroke-dasharray="2 3"/>
<path d="M88.0624 454.954C88.0624 455.414 88.0104 455.806 87.9064 456.13C87.8024 456.454 87.6164 456.7 87.3484 456.868C87.0844 457.036 86.7084 457.12 86.2204 457.12C85.9124 457.12 85.6224 457.084 85.3504 457.012C85.0824 456.94 84.9044 456.886 84.8164 456.85L84.8944 455.788C85.0184 455.832 85.1604 455.888 85.3204 455.956C85.4844 456.02 85.6864 456.052 85.9264 456.052C86.3184 456.052 86.5864 455.944 86.7304 455.728C86.8784 455.512 86.9524 455.148 86.9524 454.636V448.324H88.0624V454.954ZM91.6164 457.12C91.2164 457.12 90.8624 457.05 90.5544 456.91C90.2464 456.766 90.0044 456.56 89.8284 456.292C89.6564 456.024 89.5704 455.7 89.5704 455.32C89.5704 454.632 89.8104 454.12 90.2904 453.784C90.7704 453.448 91.5404 453.268 92.6004 453.244L93.7104 453.214V452.728C93.7104 452.348 93.5964 452.048 93.3684 451.828C93.1404 451.604 92.7864 451.492 92.3064 451.492C91.9504 451.496 91.6364 451.58 91.3644 451.744C91.0964 451.908 90.9224 452.176 90.8424 452.548H89.8644C89.8884 452.144 90.0024 451.804 90.2064 451.528C90.4104 451.248 90.6944 451.036 91.0584 450.892C91.4264 450.748 91.8604 450.676 92.3604 450.676C92.9004 450.676 93.3484 450.752 93.7044 450.904C94.0644 451.056 94.3324 451.28 94.5084 451.576C94.6884 451.872 94.7784 452.236 94.7784 452.668V457H93.8304L93.7524 455.836C93.5124 456.32 93.2064 456.656 92.8344 456.844C92.4664 457.028 92.0604 457.12 91.6164 457.12ZM91.9524 456.322C92.1604 456.322 92.3664 456.284 92.5704 456.208C92.7784 456.132 92.9684 456.03 93.1404 455.902C93.3124 455.77 93.4484 455.624 93.5484 455.464C93.6524 455.3 93.7064 455.132 93.7104 454.96V453.898L92.7864 453.916C92.3144 453.924 91.9184 453.972 91.5984 454.06C91.2824 454.148 91.0444 454.286 90.8844 454.474C90.7284 454.662 90.6504 454.908 90.6504 455.212C90.6504 455.56 90.7704 455.832 91.0104 456.028C91.2544 456.224 91.5684 456.322 91.9524 456.322ZM96.6739 457V450.796H97.7479V451.696C97.8479 451.524 97.9859 451.362 98.1619 451.21C98.3419 451.058 98.5579 450.936 98.8099 450.844C99.0659 450.752 99.3599 450.706 99.6919 450.706C100.084 450.706 100.444 450.784 100.772 450.94C101.104 451.096 101.368 451.34 101.564 451.672C101.764 452 101.864 452.424 101.864 452.944V457H100.754V453.052C100.754 452.568 100.626 452.21 100.37 451.978C100.118 451.742 99.7899 451.624 99.3859 451.624C99.1059 451.624 98.8439 451.67 98.5999 451.762C98.3559 451.85 98.1579 451.986 98.0059 452.17C97.8539 452.35 97.7779 452.578 97.7779 452.854V457H96.6739Z" fill="#919EAB"/>
<path d="M184.389 448.324H189.795L189.789 449.296H185.529V452.164H189.357V453.124H185.529V457H184.389V448.324ZM191.902 454.156C191.902 454.548 191.966 454.904 192.094 455.224C192.226 455.54 192.424 455.792 192.688 455.98C192.956 456.168 193.29 456.262 193.69 456.262C194.086 456.262 194.426 456.17 194.71 455.986C194.998 455.802 195.182 455.536 195.262 455.188H196.312C196.236 455.608 196.068 455.962 195.808 456.25C195.548 456.538 195.234 456.756 194.866 456.904C194.498 457.048 194.114 457.12 193.714 457.12C193.134 457.12 192.624 456.994 192.184 456.742C191.744 456.49 191.4 456.128 191.152 455.656C190.904 455.184 190.78 454.618 190.78 453.958C190.78 453.306 190.892 452.734 191.116 452.242C191.34 451.75 191.664 451.366 192.088 451.09C192.516 450.814 193.03 450.676 193.63 450.676C194.214 450.676 194.708 450.802 195.112 451.054C195.516 451.306 195.822 451.662 196.03 452.122C196.242 452.578 196.348 453.12 196.348 453.748V454.156H191.902ZM191.908 453.406H195.28C195.28 453.05 195.22 452.73 195.1 452.446C194.98 452.158 194.796 451.932 194.548 451.768C194.304 451.6 193.996 451.516 193.624 451.516C193.236 451.516 192.914 451.61 192.658 451.798C192.406 451.982 192.216 452.22 192.088 452.512C191.964 452.8 191.904 453.098 191.908 453.406ZM200.938 457.12C200.574 457.12 200.266 457.072 200.014 456.976C199.766 456.88 199.562 456.758 199.402 456.61C199.242 456.458 199.118 456.304 199.03 456.148C198.942 455.988 198.878 455.848 198.838 455.728L198.718 457H197.872V448.084H198.988V451.78C199.04 451.676 199.118 451.562 199.222 451.438C199.33 451.314 199.468 451.194 199.636 451.078C199.804 450.962 200.002 450.866 200.23 450.79C200.462 450.714 200.726 450.676 201.022 450.676C201.798 450.676 202.414 450.946 202.87 451.486C203.33 452.026 203.56 452.822 203.56 453.874C203.56 454.526 203.462 455.096 203.266 455.584C203.07 456.068 202.778 456.446 202.39 456.718C202.002 456.986 201.518 457.12 200.938 457.12ZM200.74 456.268C201.244 456.268 201.654 456.074 201.97 455.686C202.286 455.294 202.444 454.672 202.444 453.82C202.444 453.096 202.296 452.536 202 452.14C201.708 451.74 201.28 451.54 200.716 451.54C200.304 451.54 199.972 451.63 199.72 451.81C199.472 451.986 199.288 452.244 199.168 452.584C199.052 452.924 198.992 453.336 198.988 453.82C198.988 454.688 199.122 455.314 199.39 455.698C199.662 456.078 200.112 456.268 200.74 456.268Z" fill="#919EAB"/>
<path d="M285.97 457V448.324H287.506L290.122 455.488L292.774 448.324H294.304V457H293.158V449.986L290.644 457H289.606L287.11 450.052V457H285.97ZM298.051 457.12C297.651 457.12 297.297 457.05 296.989 456.91C296.681 456.766 296.439 456.56 296.263 456.292C296.091 456.024 296.005 455.7 296.005 455.32C296.005 454.632 296.245 454.12 296.725 453.784C297.205 453.448 297.975 453.268 299.035 453.244L300.145 453.214V452.728C300.145 452.348 300.031 452.048 299.803 451.828C299.575 451.604 299.221 451.492 298.741 451.492C298.385 451.496 298.071 451.58 297.799 451.744C297.531 451.908 297.357 452.176 297.277 452.548H296.299C296.323 452.144 296.437 451.804 296.641 451.528C296.845 451.248 297.129 451.036 297.493 450.892C297.861 450.748 298.295 450.676 298.795 450.676C299.335 450.676 299.783 450.752 300.139 450.904C300.499 451.056 300.767 451.28 300.943 451.576C301.123 451.872 301.213 452.236 301.213 452.668V457H300.265L300.187 455.836C299.947 456.32 299.641 456.656 299.269 456.844C298.901 457.028 298.495 457.12 298.051 457.12ZM298.387 456.322C298.595 456.322 298.801 456.284 299.005 456.208C299.213 456.132 299.403 456.03 299.575 455.902C299.747 455.77 299.883 455.624 299.983 455.464C300.087 455.3 300.141 455.132 300.145 454.96V453.898L299.221 453.916C298.749 453.924 298.353 453.972 298.033 454.06C297.717 454.148 297.479 454.286 297.319 454.474C297.163 454.662 297.085 454.908 297.085 455.212C297.085 455.56 297.205 455.832 297.445 456.028C297.689 456.224 298.003 456.322 298.387 456.322ZM303.109 457V450.796H304.165V451.99C304.269 451.694 304.415 451.45 304.603 451.258C304.791 451.062 305.005 450.916 305.245 450.82C305.489 450.724 305.741 450.676 306.001 450.676C306.093 450.676 306.183 450.682 306.271 450.694C306.359 450.706 306.427 450.726 306.475 450.754V451.828C306.415 451.8 306.337 451.782 306.241 451.774C306.149 451.762 306.071 451.756 306.007 451.756C305.759 451.74 305.527 451.756 305.311 451.804C305.095 451.848 304.905 451.926 304.741 452.038C304.577 452.15 304.447 452.298 304.351 452.482C304.259 452.662 304.213 452.882 304.213 453.142V457H303.109Z" fill="#919EAB"/>
<path d="M388.35 457L391.488 448.324H392.742L395.88 457H394.746L393.894 454.624H390.348L389.478 457H388.35ZM390.63 453.604H393.6L392.124 449.422L390.63 453.604ZM397.289 458.932V450.796H398.393L398.405 451.876C398.477 451.748 398.569 451.614 398.681 451.474C398.797 451.334 398.937 451.204 399.101 451.084C399.269 450.964 399.463 450.866 399.683 450.79C399.907 450.714 400.161 450.676 400.445 450.676C400.941 450.676 401.377 450.79 401.753 451.018C402.133 451.242 402.429 451.586 402.641 452.05C402.853 452.514 402.959 453.102 402.959 453.814C402.959 454.526 402.855 455.128 402.647 455.62C402.443 456.108 402.147 456.48 401.759 456.736C401.371 456.992 400.903 457.12 400.355 457.12C400.079 457.12 399.833 457.08 399.617 457C399.405 456.924 399.219 456.824 399.059 456.7C398.903 456.572 398.771 456.436 398.663 456.292C398.559 456.148 398.473 456.01 398.405 455.878V458.932H397.289ZM400.145 456.256C400.657 456.256 401.075 456.062 401.399 455.674C401.723 455.282 401.885 454.674 401.885 453.85C401.885 453.142 401.737 452.58 401.441 452.164C401.145 451.748 400.713 451.54 400.145 451.54C399.569 451.54 399.133 451.754 398.837 452.182C398.541 452.606 398.393 453.162 398.393 453.85C398.393 454.294 398.459 454.698 398.591 455.062C398.723 455.426 398.919 455.716 399.179 455.932C399.439 456.148 399.761 456.256 400.145 456.256ZM404.414 457V450.796H405.47V451.99C405.574 451.694 405.72 451.45 405.908 451.258C406.096 451.062 406.31 450.916 406.55 450.82C406.794 450.724 407.046 450.676 407.306 450.676C407.398 450.676 407.488 450.682 407.576 450.694C407.664 450.706 407.732 450.726 407.78 450.754V451.828C407.72 451.8 407.642 451.782 407.546 451.774C407.454 451.762 407.376 451.756 407.312 451.756C407.064 451.74 406.832 451.756 406.616 451.804C406.4 451.848 406.21 451.926 406.046 452.038C405.882 452.15 405.752 452.298 405.656 452.482C405.564 452.662 405.518 452.882 405.518 453.142V457H404.414Z" fill="#919EAB"/>
<path d="M490.029 457V448.324H491.565L494.181 455.488L496.833 448.324H498.363V457H497.217V449.986L494.703 457H493.665L491.169 450.052V457H490.029ZM502.111 457.12C501.711 457.12 501.357 457.05 501.049 456.91C500.741 456.766 500.499 456.56 500.323 456.292C500.151 456.024 500.065 455.7 500.065 455.32C500.065 454.632 500.305 454.12 500.785 453.784C501.265 453.448 502.035 453.268 503.095 453.244L504.205 453.214V452.728C504.205 452.348 504.091 452.048 503.863 451.828C503.635 451.604 503.281 451.492 502.801 451.492C502.445 451.496 502.131 451.58 501.859 451.744C501.591 451.908 501.417 452.176 501.337 452.548H500.359C500.383 452.144 500.497 451.804 500.701 451.528C500.905 451.248 501.189 451.036 501.553 450.892C501.921 450.748 502.355 450.676 502.855 450.676C503.395 450.676 503.843 450.752 504.199 450.904C504.559 451.056 504.827 451.28 505.003 451.576C505.183 451.872 505.273 452.236 505.273 452.668V457H504.325L504.247 455.836C504.007 456.32 503.701 456.656 503.329 456.844C502.961 457.028 502.555 457.12 502.111 457.12ZM502.447 456.322C502.655 456.322 502.861 456.284 503.065 456.208C503.273 456.132 503.463 456.03 503.635 455.902C503.807 455.77 503.943 455.624 504.043 455.464C504.147 455.3 504.201 455.132 504.205 454.96V453.898L503.281 453.916C502.809 453.924 502.413 453.972 502.093 454.06C501.777 454.148 501.539 454.286 501.379 454.474C501.223 454.662 501.145 454.908 501.145 455.212C501.145 455.56 501.265 455.832 501.505 456.028C501.749 456.224 502.063 456.322 502.447 456.322ZM507.581 458.98C507.217 458.98 506.967 458.954 506.831 458.902C506.695 458.85 506.627 458.824 506.627 458.824V458.104L507.257 458.116C507.489 458.124 507.681 458.108 507.833 458.068C507.985 458.028 508.107 457.974 508.199 457.906C508.291 457.838 508.361 457.762 508.409 457.678C508.461 457.594 508.503 457.514 508.535 457.438L508.751 456.85L506.327 450.796H507.449L509.279 455.584L511.097 450.796H512.183L509.567 457.468C509.407 457.86 509.227 458.166 509.027 458.386C508.831 458.606 508.611 458.76 508.367 458.848C508.127 458.936 507.865 458.98 507.581 458.98Z" fill="#919EAB"/>
<path d="M596.814 454.954C596.814 455.414 596.762 455.806 596.658 456.13C596.554 456.454 596.368 456.7 596.1 456.868C595.836 457.036 595.46 457.12 594.972 457.12C594.664 457.12 594.374 457.084 594.102 457.012C593.834 456.94 593.656 456.886 593.568 456.85L593.646 455.788C593.77 455.832 593.912 455.888 594.072 455.956C594.236 456.02 594.438 456.052 594.678 456.052C595.07 456.052 595.338 455.944 595.482 455.728C595.63 455.512 595.704 455.148 595.704 454.636V448.324H596.814V454.954ZM600.932 457.12C600.608 457.116 600.302 457.07 600.014 456.982C599.73 456.89 599.478 456.756 599.258 456.58C599.038 456.404 598.864 456.186 598.736 455.926C598.612 455.662 598.55 455.356 598.55 455.008V450.796H599.66V454.894C599.66 455.298 599.784 455.626 600.032 455.878C600.284 456.13 600.662 456.256 601.166 456.256C601.622 456.256 601.988 456.138 602.264 455.902C602.544 455.662 602.684 455.306 602.684 454.834V450.796H603.788V457H602.906L602.792 455.812C602.716 456.124 602.586 456.376 602.402 456.568C602.222 456.76 602.004 456.902 601.748 456.994C601.496 457.082 601.224 457.124 600.932 457.12ZM605.589 457V450.796H606.663V451.696C606.763 451.524 606.901 451.362 607.077 451.21C607.257 451.058 607.473 450.936 607.725 450.844C607.981 450.752 608.275 450.706 608.607 450.706C608.999 450.706 609.359 450.784 609.687 450.94C610.019 451.096 610.283 451.34 610.479 451.672C610.679 452 610.779 452.424 610.779 452.944V457H609.669V453.052C609.669 452.568 609.541 452.21 609.285 451.978C609.033 451.742 608.705 451.624 608.301 451.624C608.021 451.624 607.759 451.67 607.515 451.762C607.271 451.85 607.073 451.986 606.921 452.17C606.769 452.35 606.693 452.578 606.693 452.854V457H605.589Z" fill="#919EAB"/>
<path d="M696.156 454.954C696.156 455.414 696.104 455.806 696 456.13C695.896 456.454 695.71 456.7 695.442 456.868C695.178 457.036 694.802 457.12 694.314 457.12C694.006 457.12 693.716 457.084 693.444 457.012C693.176 456.94 692.998 456.886 692.91 456.85L692.988 455.788C693.112 455.832 693.254 455.888 693.414 455.956C693.578 456.02 693.78 456.052 694.02 456.052C694.412 456.052 694.68 455.944 694.824 455.728C694.972 455.512 695.046 455.148 695.046 454.636V448.324H696.156V454.954ZM700.274 457.12C699.95 457.116 699.644 457.07 699.356 456.982C699.072 456.89 698.82 456.756 698.6 456.58C698.38 456.404 698.206 456.186 698.078 455.926C697.954 455.662 697.892 455.356 697.892 455.008V450.796H699.002V454.894C699.002 455.298 699.126 455.626 699.374 455.878C699.626 456.13 700.004 456.256 700.508 456.256C700.964 456.256 701.33 456.138 701.606 455.902C701.886 455.662 702.026 455.306 702.026 454.834V450.796H703.13V457H702.248L702.134 455.812C702.058 456.124 701.928 456.376 701.744 456.568C701.564 456.76 701.346 456.902 701.09 456.994C700.838 457.082 700.566 457.124 700.274 457.12ZM706.498 457.078C706.162 457.078 705.89 457.032 705.682 456.94C705.478 456.848 705.32 456.724 705.208 456.568C705.1 456.412 705.026 456.234 704.986 456.034C704.95 455.83 704.932 455.62 704.932 455.404V448.084H706.024V455.296C706.024 455.608 706.084 455.842 706.204 455.998C706.328 456.154 706.5 456.24 706.72 456.256L707.056 456.262V456.982C706.964 457.01 706.868 457.032 706.768 457.048C706.668 457.068 706.578 457.078 706.498 457.078Z" fill="#919EAB"/>
<path d="M88 270C88 266.229 88 264.343 89.1716 263.172C90.3431 262 92.2288 262 96 262H100C103.771 262 105.657 262 106.828 263.172C108 264.343 108 266.229 108 270V290H88V270Z" fill="#00B8D9"/>
<path d="M88 290H108V330H88V290Z" fill="#FFAB00"/>
<rect x="88" y="330" width="20" height="92" fill="#007867"/>
<path d="M187.333 345C187.333 341.229 187.333 339.343 188.505 338.172C189.676 337 191.562 337 195.333 337H199.333C203.105 337 204.99 337 206.162 338.172C207.333 339.343 207.333 341.229 207.333 345V352H187.333V345Z" fill="#00B8D9"/>
<path d="M187.333 352H207.333V373H187.333V352Z" fill="#FFAB00"/>
<rect x="187.333" y="373" width="20" height="49" fill="#007867"/>
<path d="M286.667 326C286.667 322.229 286.667 320.343 287.838 319.172C289.01 318 290.895 318 294.667 318H298.667C302.438 318 304.324 318 305.495 319.172C306.667 320.343 306.667 322.229 306.667 326V337H286.667V326Z" fill="#00B8D9"/>
<path d="M286.667 337H306.667V363H286.667V337Z" fill="#FFAB00"/>
<rect x="286.667" y="363" width="20" height="59" fill="#007867"/>
<path d="M386 270C386 266.229 386 264.343 387.172 263.172C388.343 262 390.229 262 394 262H398C401.771 262 403.657 262 404.828 263.172C406 264.343 406 266.229 406 270V290H386V270Z" fill="#00B8D9"/>
<path d="M386 290H406V330H386V290Z" fill="#FFAB00"/>
<rect x="386" y="330" width="20" height="92" fill="#007867"/>
<path d="M485.333 294C485.333 290.229 485.333 288.343 486.505 287.172C487.677 286 489.562 286 493.333 286H497.333C501.105 286 502.99 286 504.162 287.172C505.333 288.343 505.333 290.229 505.333 294V310H485.333V294Z" fill="#00B8D9"/>
<path d="M485.333 310H505.333V345H485.333V310Z" fill="#FFAB00"/>
<rect x="485.333" y="345" width="20" height="77" fill="#007867"/>
<path d="M584.667 230C584.667 226.229 584.667 224.343 585.838 223.172C587.01 222 588.895 222 592.667 222H596.667C600.438 222 602.324 222 603.495 223.172C604.667 224.343 604.667 226.229 604.667 230V252H584.667V230Z" fill="#00B8D9"/>
<path d="M584.667 252H604.667V295H584.667V252Z" fill="#FFAB00"/>
<rect x="584.667" y="295" width="20" height="127" fill="#007867"/>
<path d="M684 311C684 307.229 684 305.343 685.172 304.172C686.343 303 688.229 303 692 303H696C699.771 303 701.657 303 702.828 304.172C704 305.343 704 307.229 704 311V324H684V311Z" fill="#00B8D9"/>
<path d="M684 324H704V354H684V324Z" fill="#FFAB00"/>
<rect x="684" y="354" width="20" height="68" fill="#007867"/>
</g>
</g>
<defs>
<filter id="filter0_dd_0_3347" x="0" y="0" width="752" height="518" filterUnits="userSpaceOnUse" color-interpolation-filters="sRGB">
<feFlood flood-opacity="0" result="BackgroundImageFix"/>
<feColorMatrix in="SourceAlpha" type="matrix" values="0 0 0 0 0 0 0 0 0 0 0 0 0 0 0 0 0 0 127 0" result="hardAlpha"/>
<feMorphology radius="4" operator="erode" in="SourceAlpha" result="effect1_dropShadow_0_3347"/>
<feOffset dy="12"/>
<feGaussianBlur stdDeviation="12"/>
<feComposite in2="hardAlpha" operator="out"/>
<feColorMatrix type="matrix" values="0 0 0 0 0.568627 0 0 0 0 0.619608 0 0 0 0 0.670588 0 0 0 0.12 0"/>
<feBlend mode="normal" in2="BackgroundImageFix" result="effect1_dropShadow_0_3347"/>
<feColorMatrix in="SourceAlpha" type="matrix" values="0 0 0 0 0 0 0 0 0 0 0 0 0 0 0 0 0 0 127 0" result="hardAlpha"/>
<feOffset/>
<feGaussianBlur stdDeviation="1"/>
<feComposite in2="hardAlpha" operator="out"/>
<feColorMatrix type="matrix" values="0 0 0 0 0.568627 0 0 0 0 0.619608 0 0 0 0 0.670588 0 0 0 0.2 0"/>
<feBlend mode="normal" in2="effect1_dropShadow_0_3347" result="effect2_dropShadow_0_3347"/>
<feBlend mode="normal" in="SourceGraphic" in2="effect2_dropShadow_0_3347" result="shape"/>
</filter>
<clipPath id="clip0_0_3347">
<path d="M20 24C20 15.1634 27.1634 8 36 8L716 8C724.837 8 732 15.1634 732 24V470C732 478.837 724.837 486 716 486L36 486C27.1634 486 20 478.837 20 470L20 24Z" fill="white"/>
</clipPath>
<clipPath id="clip1_0_3347">
<rect width="572" height="54" fill="white" transform="translate(44 32)"/>
</clipPath>
</defs>
</svg>
