<svg width="64" height="64" viewBox="0 0 64 64" fill="none" xmlns="http://www.w3.org/2000/svg">
<path d="M2 31.514C2 30.9766 2.4553 30.541 3.01695 30.541H14.2034C14.765 30.541 15.2203 30.9766 15.2203 31.514V50.0005H2V31.514Z" fill="#4E80EE"/>
<path d="M17.2542 23.7308C17.2542 23.1934 17.7095 22.7578 18.2712 22.7578H30.4746C31.0362 22.7578 31.4915 23.1934 31.4915 23.7308V50.001H17.2542V23.7308Z" fill="#2A4DD0"/>
<path d="M33.5254 14.973C33.5254 14.4356 33.9807 14 34.5424 14H48.7797C49.3413 14 49.7966 14.4356 49.7966 14.973V50H33.5254V14.973Z" fill="#3662E3"/>
<path d="M51.8305 36.3773C51.8305 35.8399 52.2858 35.4043 52.8475 35.4043H60.983C61.5447 35.4043 62 35.8399 62 36.3773V49.9989H51.8305V36.3773Z" fill="#263FA9"/>
</svg>
